<svg width="38" height="41" viewBox="0 0 38 41" fill="none" xmlns="http://www.w3.org/2000/svg">
<g id="Group 75">
<path id="Vector" d="M18.5419 40.8162C15.2601 40.8162 11.9769 40.8264 8.69506 40.8132C4.94943 40.7986 1.61367 38.3565 0.432225 34.7878C0.147802 33.9366 0.00194477 33.0606 0.00194477 32.1611C0.00194477 30.4192 -0.00243096 28.6774 0.00194477 26.9355C0.00486192 25.6038 0.993776 24.593 2.29045 24.5798C3.59296 24.5666 4.61688 25.5848 4.62563 26.9267C4.63584 28.5851 4.62855 30.2449 4.62855 31.9033C4.62855 34.4098 6.39634 36.203 8.89488 36.2059C13.5186 36.2132 18.1437 36.2088 22.7674 36.2088C24.7073 36.2088 26.6487 36.2176 28.5886 36.2059C30.5941 36.1942 32.2321 34.9343 32.6828 33.0562C32.7718 32.687 32.7995 32.2973 32.8024 31.9164C32.8155 30.2376 32.7995 28.5572 32.8112 26.8784C32.8184 25.7782 33.5521 24.8802 34.6081 24.6355C35.6393 24.3967 36.7274 24.8875 37.1796 25.847C37.3284 26.1649 37.4188 26.54 37.4232 26.8916C37.4465 28.6744 37.448 30.4573 37.4305 32.2417C37.3896 36.433 34.1822 40.1057 30.0501 40.699C29.5308 40.7737 29.0028 40.8103 28.4777 40.8118C25.1638 40.822 21.8514 40.8162 18.5375 40.8162H18.5419Z" fill="#CACACA"/>
<path id="Vector_2" d="M16.408 19.1023C16.408 18.9704 16.408 18.84 16.408 18.7082C16.408 13.2746 16.408 7.841 16.408 2.4074C16.408 1.22662 17.1008 0.322733 18.1933 0.0634323C19.6008 -0.272047 20.9675 0.763691 21.0259 2.21402C21.039 2.55536 21.0302 2.89816 21.0302 3.24097C21.0302 8.31125 21.0302 13.3815 21.0302 18.4533C21.0302 18.5851 21.0302 18.717 21.0302 18.9485C21.1805 18.8093 21.268 18.7346 21.3482 18.654C22.8593 17.1509 24.366 15.642 25.8829 14.1463C27.1563 12.8908 29.2566 13.402 29.7554 15.0897C30.0209 15.9863 29.7875 16.77 29.1312 17.4249C27.2627 19.2883 25.3928 21.1488 23.5229 23.0094C22.4596 24.0671 21.3978 25.1263 20.333 26.184C19.2858 27.2241 17.9089 27.2285 16.866 26.1928C14.0262 23.3697 11.1892 20.5438 8.3523 17.7179C7.36338 16.7319 7.31817 15.3241 8.23999 14.3865C9.16181 13.4475 10.616 13.4636 11.5947 14.4334C13.0868 15.9116 14.5731 17.3956 16.0609 18.8781C16.1469 18.9646 16.2374 19.0466 16.3263 19.1301C16.3526 19.1213 16.3803 19.1111 16.4066 19.1023H16.408Z" fill="#CACACA"/>
</g>
</svg>
