<svg width="121" height="156" viewBox="0 0 121 156" fill="none" xmlns="http://www.w3.org/2000/svg">
<rect width="121" height="120.911" rx="21" fill="white"/>
<path d="M60.5419 68.8162C57.2601 68.8162 53.9769 68.8264 50.6951 68.8132C46.9494 68.7986 43.6137 66.3565 42.4322 62.7878C42.1478 61.9366 42.0019 61.0606 42.0019 60.1611C42.0019 58.4192 41.9976 56.6774 42.0019 54.9355C42.0049 53.6038 42.9938 52.593 44.2905 52.5798C45.593 52.5666 46.6169 53.5848 46.6256 54.9267C46.6358 56.5851 46.6285 58.2449 46.6285 59.9033C46.6285 62.4098 48.3963 64.203 50.8949 64.2059C55.5186 64.2132 60.1437 64.2088 64.7674 64.2088C66.7073 64.2088 68.6487 64.2176 70.5886 64.2059C72.5941 64.1942 74.2321 62.9343 74.6828 61.0562C74.7718 60.687 74.7995 60.2973 74.8024 59.9164C74.8155 58.2376 74.7995 56.5572 74.8112 54.8784C74.8184 53.7782 75.5521 52.8802 76.6081 52.6355C77.6393 52.3967 78.7274 52.8875 79.1796 53.847C79.3284 54.1649 79.4188 54.54 79.4232 54.8916C79.4465 56.6744 79.448 58.4573 79.4305 60.2417C79.3896 64.433 76.1822 68.1057 72.0501 68.699C71.5308 68.7737 71.0028 68.8103 70.4777 68.8118C67.1638 68.822 63.8514 68.8162 60.5375 68.8162H60.5419Z" fill="#CACACA"/>
<path d="M58.408 47.1023C58.408 46.9704 58.408 46.84 58.408 46.7082C58.408 41.2746 58.408 35.841 58.408 30.4074C58.408 29.2266 59.1008 28.3227 60.1933 28.0634C61.6008 27.728 62.9675 28.7637 63.0259 30.214C63.039 30.5554 63.0302 30.8982 63.0302 31.241C63.0302 36.3113 63.0302 41.3815 63.0302 46.4533C63.0302 46.5851 63.0302 46.717 63.0302 46.9485C63.1805 46.8093 63.268 46.7346 63.3482 46.654C64.8593 45.1509 66.366 43.642 67.8829 42.1463C69.1563 40.8908 71.2566 41.402 71.7554 43.0897C72.0209 43.9863 71.7875 44.77 71.1312 45.4249C69.2627 47.2883 67.3928 49.1488 65.5229 51.0094C64.4596 52.0671 63.3978 53.1263 62.333 54.184C61.2858 55.2241 59.9089 55.2285 58.866 54.1928C56.0262 51.3697 53.1892 48.5438 50.3523 45.7179C49.3634 44.7319 49.3182 43.3241 50.24 42.3865C51.1618 41.4475 52.616 41.4636 53.5947 42.4334C55.0868 43.9116 56.5731 45.3956 58.0609 46.8781C58.1469 46.9646 58.2374 47.0466 58.3263 47.1301C58.3526 47.1213 58.3803 47.1111 58.4066 47.1023H58.408Z" fill="#CACACA"/>
<path d="M32.1733 85H28.8217V75.5455H32.201C33.152 75.5455 33.9706 75.7347 34.657 76.1133C35.3433 76.4888 35.8711 77.0289 36.2404 77.7337C36.6128 78.4384 36.799 79.2817 36.799 80.2635C36.799 81.2483 36.6128 82.0947 36.2404 82.8026C35.8711 83.5104 35.3402 84.0536 34.6477 84.4322C33.9583 84.8107 33.1335 85 32.1733 85ZM30.8207 83.2873H32.0902C32.6811 83.2873 33.1781 83.1826 33.5813 82.9734C33.9876 82.761 34.2923 82.4332 34.4954 81.9901C34.7016 81.5438 34.8047 80.9683 34.8047 80.2635C34.8047 79.5649 34.7016 78.994 34.4954 78.5508C34.2923 78.1076 33.9891 77.7814 33.5859 77.5721C33.1828 77.3628 32.6857 77.2582 32.0948 77.2582H30.8207V83.2873ZM41.4743 85.1385C40.7449 85.1385 40.1171 84.9908 39.5908 84.6953C39.0676 84.3968 38.6644 83.9751 38.3813 83.4304C38.0982 82.8826 37.9566 82.2347 37.9566 81.4869C37.9566 80.7575 38.0982 80.1173 38.3813 79.5664C38.6644 79.0155 39.063 78.5862 39.577 78.2784C40.094 77.9706 40.7003 77.8168 41.3959 77.8168C41.8637 77.8168 42.2992 77.8922 42.7023 78.043C43.1086 78.1907 43.4625 78.4138 43.7641 78.7124C44.0688 79.0109 44.3058 79.3864 44.4751 79.8388C44.6443 80.2881 44.729 80.8144 44.729 81.4176V81.9577H38.7414V80.739H42.8778C42.8778 80.4558 42.8162 80.205 42.6931 79.9865C42.57 79.768 42.3992 79.5972 42.1807 79.4741C41.9652 79.3479 41.7144 79.2848 41.4282 79.2848C41.1296 79.2848 40.865 79.354 40.6341 79.4925C40.4064 79.628 40.2279 79.8111 40.0986 80.0419C39.9694 80.2696 39.9032 80.5236 39.9001 80.8036V81.9624C39.9001 82.3132 39.9648 82.6164 40.094 82.8718C40.2264 83.1272 40.4126 83.3242 40.6526 83.4627C40.8927 83.6012 41.1773 83.6705 41.5067 83.6705C41.7252 83.6705 41.9252 83.6397 42.1068 83.5781C42.2884 83.5166 42.4438 83.4242 42.5731 83.3011C42.7023 83.178 42.8008 83.0272 42.8685 82.8487L44.6874 82.9688C44.5951 83.4058 44.4058 83.7874 44.1196 84.1136C43.8364 84.4368 43.4702 84.6892 43.0209 84.8707C42.5746 85.0492 42.0591 85.1385 41.4743 85.1385ZM51.9122 79.9311L50.1118 80.0419C50.081 79.888 50.0148 79.7495 49.9133 79.6264C49.8117 79.5002 49.6778 79.4002 49.5116 79.3263C49.3485 79.2494 49.1531 79.2109 48.9253 79.2109C48.6206 79.2109 48.3637 79.2756 48.1544 79.4048C47.9451 79.531 47.8405 79.7003 47.8405 79.9126C47.8405 80.0819 47.9082 80.225 48.0436 80.342C48.179 80.4589 48.4114 80.5528 48.7407 80.6236L50.0241 80.8821C50.7135 81.0237 51.2274 81.2514 51.566 81.5653C51.9045 81.8793 52.0738 82.2917 52.0738 82.8026C52.0738 83.2673 51.9368 83.6751 51.6629 84.0259C51.3921 84.3768 51.0197 84.6507 50.5457 84.8477C50.0748 85.0415 49.5316 85.1385 48.9161 85.1385C47.9774 85.1385 47.2296 84.9431 46.6725 84.5522C46.1185 84.1583 45.7938 83.6228 45.6984 82.9457L47.6327 82.8441C47.6912 83.1303 47.8328 83.3488 48.0574 83.4996C48.2821 83.6474 48.5699 83.7212 48.9207 83.7212C49.2654 83.7212 49.5424 83.6551 49.7517 83.5227C49.964 83.3873 50.0718 83.2134 50.0748 83.0011C50.0718 82.8226 49.9964 82.6764 49.8486 82.5625C49.7009 82.4455 49.4732 82.3563 49.1654 82.2947L47.9374 82.0501C47.2449 81.9116 46.7294 81.6715 46.3909 81.3299C46.0554 80.9883 45.8877 80.5528 45.8877 80.0234C45.8877 79.5679 46.0108 79.1755 46.257 78.8462C46.5063 78.5169 46.8556 78.263 47.305 78.0845C47.7574 77.906 48.2867 77.8168 48.893 77.8168C49.7886 77.8168 50.4934 78.006 51.0074 78.3846C51.5244 78.7631 51.826 79.2786 51.9122 79.9311ZM56.516 85.1385C55.7897 85.1385 55.1649 84.9846 54.6417 84.6768C54.1216 84.366 53.7215 83.9351 53.4414 83.3842C53.1644 82.8333 53.0259 82.1993 53.0259 81.4822C53.0259 80.7559 53.166 80.1188 53.446 79.571C53.7292 79.0201 54.1308 78.5908 54.6509 78.283C55.171 77.9722 55.7897 77.8168 56.5067 77.8168C57.1254 77.8168 57.667 77.9291 58.1317 78.1538C58.5965 78.3784 58.9643 78.6939 59.2351 79.1001C59.5059 79.5064 59.6552 79.9834 59.6829 80.5312H57.8271C57.7747 80.1773 57.6362 79.8926 57.4116 79.6772C57.19 79.4587 56.8991 79.3494 56.5391 79.3494C56.2344 79.3494 55.9682 79.4325 55.7404 79.5987C55.5157 79.7618 55.3403 80.0004 55.2141 80.3143C55.0879 80.6282 55.0249 81.0083 55.0249 81.4545C55.0249 81.907 55.0864 82.2917 55.2095 82.6087C55.3357 82.9257 55.5127 83.1673 55.7404 83.3335C55.9682 83.4996 56.2344 83.5827 56.5391 83.5827C56.7637 83.5827 56.9653 83.5366 57.1438 83.4442C57.3254 83.3519 57.4747 83.218 57.5916 83.0426C57.7116 82.8641 57.7901 82.6502 57.8271 82.4009H59.6829C59.6521 82.9426 59.5044 83.4196 59.2397 83.832C58.9781 84.2414 58.6165 84.5614 58.1548 84.7923C57.6932 85.0231 57.1469 85.1385 56.516 85.1385ZM62.964 85.1339C62.5116 85.1339 62.1085 85.0554 61.7545 84.8984C61.4006 84.7384 61.1205 84.503 60.9143 84.1921C60.7112 83.8782 60.6096 83.4873 60.6096 83.0195C60.6096 82.6256 60.682 82.2947 60.8266 82.027C60.9713 81.7592 61.1682 81.5438 61.4175 81.3807C61.6668 81.2176 61.95 81.0945 62.267 81.0114C62.587 80.9283 62.9225 80.8698 63.2733 80.8359C63.6858 80.7929 64.0181 80.7528 64.2705 80.7159C64.5229 80.6759 64.706 80.6174 64.8199 80.5405C64.9337 80.4635 64.9907 80.3497 64.9907 80.1989V80.1712C64.9907 79.8788 64.8983 79.6526 64.7137 79.4925C64.5321 79.3325 64.2736 79.2525 63.9381 79.2525C63.5842 79.2525 63.3026 79.331 63.0933 79.4879C62.884 79.6418 62.7455 79.8357 62.6778 80.0696L60.8589 79.9219C60.9513 79.491 61.1328 79.1186 61.4037 78.8047C61.6745 78.4877 62.0238 78.2446 62.4516 78.0753C62.8825 77.9029 63.3811 77.8168 63.9474 77.8168C64.3413 77.8168 64.7183 77.8629 65.0784 77.9553C65.4416 78.0476 65.7632 78.1907 66.0432 78.3846C66.3264 78.5785 66.5495 78.8278 66.7126 79.1325C66.8757 79.4341 66.9573 79.7957 66.9573 80.2173V85H65.0922V84.0167H65.0368C64.923 84.2383 64.7706 84.4337 64.5798 84.603C64.389 84.7692 64.1597 84.9 63.892 84.9954C63.6242 85.0877 63.3149 85.1339 62.964 85.1339ZM63.5273 83.7766C63.8166 83.7766 64.072 83.7197 64.2936 83.6058C64.5152 83.4889 64.6891 83.3319 64.8153 83.1349C64.9414 82.938 65.0045 82.7148 65.0045 82.4656V81.7131C64.943 81.7531 64.8583 81.79 64.7506 81.8239C64.646 81.8546 64.5275 81.8839 64.3952 81.9116C64.2628 81.9362 64.1305 81.9593 63.9981 81.9808C63.8658 81.9993 63.7458 82.0162 63.6381 82.0316C63.4072 82.0655 63.2056 82.1193 63.0333 82.1932C62.8609 82.267 62.7271 82.3671 62.6317 82.4933C62.5363 82.6164 62.4885 82.7702 62.4885 82.9549C62.4885 83.2227 62.5855 83.4273 62.7794 83.5689C62.9764 83.7074 63.2256 83.7766 63.5273 83.7766ZM68.483 85V77.9091H70.3896V79.1463H70.4635C70.5928 78.7062 70.8097 78.3738 71.1144 78.1491C71.4191 77.9214 71.77 77.8075 72.167 77.8075C72.2655 77.8075 72.3717 77.8137 72.4855 77.826C72.5994 77.8383 72.6994 77.8552 72.7856 77.8768V79.6218C72.6933 79.5941 72.5655 79.5695 72.4024 79.5479C72.2393 79.5264 72.0901 79.5156 71.9546 79.5156C71.6653 79.5156 71.4068 79.5787 71.1791 79.7049C70.9544 79.828 70.7759 80.0004 70.6436 80.2219C70.5143 80.4435 70.4497 80.699 70.4497 80.9883V85H68.483ZM76.6669 87.8068C76.0298 87.8068 75.4835 87.7191 75.0281 87.5437C74.5756 87.3713 74.2156 87.1359 73.9478 86.8374C73.68 86.5388 73.5062 86.2034 73.4261 85.831L75.245 85.5863C75.3004 85.7279 75.3881 85.8602 75.5082 85.9833C75.6282 86.1064 75.7867 86.2049 75.9837 86.2788C76.1837 86.3557 76.4268 86.3942 76.7131 86.3942C77.1409 86.3942 77.4933 86.2895 77.7702 86.0803C78.0503 85.8741 78.1903 85.5278 78.1903 85.0415V83.7443H78.1072C78.0211 83.9413 77.8918 84.1275 77.7195 84.3029C77.5471 84.4783 77.3255 84.6214 77.0547 84.7322C76.7839 84.843 76.4607 84.8984 76.0852 84.8984C75.5528 84.8984 75.0681 84.7753 74.631 84.5291C74.1971 84.2798 73.8509 83.8997 73.5923 83.3888C73.3369 82.8749 73.2092 82.2255 73.2092 81.4407C73.2092 80.6374 73.34 79.9665 73.6016 79.4279C73.8632 78.8893 74.2109 78.4862 74.6449 78.2184C75.0819 77.9506 75.5605 77.8168 76.0806 77.8168C76.4776 77.8168 76.81 77.8845 77.0778 78.0199C77.3455 78.1522 77.561 78.3184 77.7241 78.5185C77.8903 78.7154 78.018 78.9093 78.1072 79.1001H78.1811V77.9091H80.1339V85.0692C80.1339 85.6725 79.9862 86.1772 79.6907 86.5835C79.3952 86.9897 78.9859 87.2944 78.4627 87.4975C77.9426 87.7037 77.344 87.8068 76.6669 87.8068ZM76.7085 83.4212C77.0254 83.4212 77.2932 83.3427 77.5117 83.1857C77.7333 83.0257 77.9026 82.7979 78.0195 82.5025C78.1396 82.204 78.1996 81.8469 78.1996 81.4315C78.1996 81.016 78.1411 80.6559 78.0241 80.3512C77.9072 80.0434 77.7379 79.8049 77.5163 79.6357C77.2947 79.4664 77.0254 79.3817 76.7085 79.3817C76.3853 79.3817 76.1129 79.4695 75.8913 79.6449C75.6697 79.8172 75.502 80.0573 75.3881 80.3651C75.2743 80.6728 75.2173 81.0283 75.2173 81.4315C75.2173 81.8408 75.2743 82.1947 75.3881 82.4933C75.5051 82.7887 75.6728 83.018 75.8913 83.1811C76.1129 83.3411 76.3853 83.4212 76.7085 83.4212ZM83.7209 85.1339C83.2685 85.1339 82.8653 85.0554 82.5114 84.8984C82.1574 84.7384 81.8774 84.503 81.6712 84.1921C81.468 83.8782 81.3665 83.4873 81.3665 83.0195C81.3665 82.6256 81.4388 82.2947 81.5835 82.027C81.7281 81.7592 81.9251 81.5438 82.1744 81.3807C82.4237 81.2176 82.7068 81.0945 83.0238 81.0114C83.3439 80.9283 83.6793 80.8698 84.0302 80.8359C84.4426 80.7929 84.775 80.7528 85.0273 80.7159C85.2797 80.6759 85.4628 80.6174 85.5767 80.5405C85.6906 80.4635 85.7475 80.3497 85.7475 80.1989V80.1712C85.7475 79.8788 85.6552 79.6526 85.4705 79.4925C85.2889 79.3325 85.0304 79.2525 84.695 79.2525C84.341 79.2525 84.0594 79.331 83.8501 79.4879C83.6409 79.6418 83.5024 79.8357 83.4347 80.0696L81.6158 79.9219C81.7081 79.491 81.8897 79.1186 82.1605 78.8047C82.4313 78.4877 82.7807 78.2446 83.2085 78.0753C83.6393 77.9029 84.1379 77.8168 84.7042 77.8168C85.0981 77.8168 85.4751 77.8629 85.8352 77.9553C86.1984 78.0476 86.52 78.1907 86.8001 78.3846C87.0832 78.5785 87.3063 78.8278 87.4695 79.1325C87.6326 79.4341 87.7141 79.7957 87.7141 80.2173V85H85.8491V84.0167H85.7937C85.6798 84.2383 85.5275 84.4337 85.3366 84.603C85.1458 84.7692 84.9165 84.9 84.6488 84.9954C84.381 85.0877 84.0717 85.1339 83.7209 85.1339ZM84.2841 83.7766C84.5734 83.7766 84.8288 83.7197 85.0504 83.6058C85.272 83.4889 85.4459 83.3319 85.5721 83.1349C85.6983 82.938 85.7614 82.7148 85.7614 82.4656V81.7131C85.6998 81.7531 85.6152 81.79 85.5075 81.8239C85.4028 81.8546 85.2843 81.8839 85.152 81.9116C85.0196 81.9362 84.8873 81.9593 84.755 81.9808C84.6226 81.9993 84.5026 82.0162 84.3949 82.0316C84.1641 82.0655 83.9625 82.1193 83.7901 82.1932C83.6178 82.267 83.4839 82.3671 83.3885 82.4933C83.2931 82.6164 83.2454 82.7702 83.2454 82.9549C83.2454 83.2227 83.3423 83.4273 83.5362 83.5689C83.7332 83.7074 83.9825 83.7766 84.2841 83.7766ZM89.2399 85V77.9091H91.1465V79.1463H91.2203C91.3496 78.7062 91.5666 78.3738 91.8713 78.1491C92.176 77.9214 92.5268 77.8075 92.9238 77.8075C93.0223 77.8075 93.1285 77.8137 93.2424 77.826C93.3562 77.8383 93.4563 77.8552 93.5424 77.8768V79.6218C93.4501 79.5941 93.3224 79.5695 93.1593 79.5479C92.9962 79.5264 92.8469 79.5156 92.7115 79.5156C92.4222 79.5156 92.1636 79.5787 91.9359 79.7049C91.7112 79.828 91.5327 80.0004 91.4004 80.2219C91.2711 80.4435 91.2065 80.699 91.2065 80.9883V85H89.2399Z" fill="#CACACA"/>
<path d="M28.4632 132.111H27.1337C27.0826 131.827 26.9874 131.577 26.8482 131.361C26.709 131.145 26.5385 130.962 26.3368 130.811C26.1351 130.661 25.9093 130.547 25.6593 130.47C25.4121 130.393 25.1493 130.355 24.8709 130.355C24.3681 130.355 23.9178 130.482 23.5201 130.734C23.1252 130.987 22.8127 131.358 22.5826 131.847C22.3553 132.335 22.2417 132.932 22.2417 133.636C22.2417 134.347 22.3553 134.946 22.5826 135.435C22.8127 135.923 23.1266 136.293 23.5243 136.543C23.9221 136.793 24.3695 136.918 24.8667 136.918C25.1422 136.918 25.4036 136.881 25.6507 136.807C25.9007 136.73 26.1266 136.618 26.3283 136.47C26.53 136.322 26.7005 136.142 26.8397 135.929C26.9817 135.713 27.0797 135.466 27.1337 135.188L28.4632 135.192C28.3922 135.621 28.2544 136.016 28.0499 136.376C27.8482 136.734 27.5882 137.044 27.2701 137.305C26.9547 137.564 26.5939 137.764 26.1877 137.906C25.7814 138.048 25.3382 138.119 24.8581 138.119C24.1025 138.119 23.4292 137.94 22.8382 137.582C22.2473 137.222 21.7814 136.706 21.4405 136.036C21.1025 135.365 20.9334 134.565 20.9334 133.636C20.9334 132.705 21.1039 131.905 21.4448 131.237C21.7857 130.567 22.2516 130.053 22.8425 129.695C23.4334 129.334 24.1053 129.153 24.8581 129.153C25.3212 129.153 25.753 129.22 26.1536 129.354C26.557 129.484 26.9192 129.678 27.2402 129.933C27.5613 130.186 27.8269 130.496 28.0371 130.862C28.2473 131.226 28.3894 131.642 28.4632 132.111ZM32.6937 138.132C32.0801 138.132 31.5446 137.991 31.0872 137.71C30.6298 137.429 30.2747 137.036 30.0218 136.53C29.769 136.024 29.6426 135.433 29.6426 134.757C29.6426 134.078 29.769 133.484 30.0218 132.976C30.2747 132.467 30.6298 132.072 31.0872 131.791C31.5446 131.51 32.0801 131.369 32.6937 131.369C33.3074 131.369 33.8429 131.51 34.3002 131.791C34.7576 132.072 35.1127 132.467 35.3656 132.976C35.6184 133.484 35.7449 134.078 35.7449 134.757C35.7449 135.433 35.6184 136.024 35.3656 136.53C35.1127 137.036 34.7576 137.429 34.3002 137.71C33.8429 137.991 33.3074 138.132 32.6937 138.132ZM32.698 137.062C33.0957 137.062 33.4252 136.957 33.6866 136.747C33.948 136.537 34.1412 136.257 34.2662 135.908C34.394 135.558 34.4579 135.173 34.4579 134.753C34.4579 134.335 34.394 133.952 34.2662 133.602C34.1412 133.25 33.948 132.967 33.6866 132.754C33.4252 132.541 33.0957 132.435 32.698 132.435C32.2974 132.435 31.965 132.541 31.7008 132.754C31.4395 132.967 31.2449 133.25 31.117 133.602C30.992 133.952 30.9295 134.335 30.9295 134.753C30.9295 135.173 30.992 135.558 31.117 135.908C31.2449 136.257 31.4395 136.537 31.7008 136.747C31.965 136.957 32.2974 137.062 32.698 137.062ZM38.4412 134.114V138H37.1671V131.455H38.3901V132.52H38.4711C38.6216 132.173 38.8574 131.895 39.1784 131.685C39.5023 131.474 39.91 131.369 40.4015 131.369C40.8475 131.369 41.2381 131.463 41.5733 131.651C41.9086 131.835 42.1685 132.111 42.3532 132.477C42.5378 132.844 42.6301 133.297 42.6301 133.837V138H41.356V133.99C41.356 133.516 41.2324 133.145 40.9853 132.878C40.7381 132.608 40.3986 132.473 39.9668 132.473C39.6713 132.473 39.4086 132.537 39.1784 132.665C38.9512 132.793 38.7708 132.98 38.6373 133.227C38.5066 133.472 38.4412 133.767 38.4412 134.114ZM47.3944 131.455V132.477H43.8191V131.455H47.3944ZM44.7779 129.886H46.052V136.078C46.052 136.325 46.089 136.511 46.1628 136.636C46.2367 136.759 46.3319 136.842 46.4483 136.888C46.5676 136.93 46.6969 136.952 46.8361 136.952C46.9384 136.952 47.0279 136.945 47.1046 136.93C47.1813 136.916 47.2409 136.905 47.2836 136.896L47.5137 137.949C47.4398 137.977 47.3347 138.006 47.1983 138.034C47.062 138.065 46.8915 138.082 46.687 138.085C46.3517 138.091 46.0392 138.031 45.7495 137.906C45.4597 137.781 45.2253 137.588 45.0463 137.327C44.8674 137.065 44.7779 136.737 44.7779 136.342V129.886ZM48.8038 138V131.455H50.0353V132.494H50.1035C50.2228 132.142 50.4331 131.865 50.7342 131.663C51.0382 131.459 51.3819 131.357 51.7654 131.357C51.845 131.357 51.9387 131.359 52.0467 131.365C52.1575 131.371 52.2441 131.378 52.3066 131.386V132.605C52.2555 132.591 52.1646 132.575 52.0339 132.558C51.9032 132.538 51.7725 132.528 51.6419 132.528C51.3407 132.528 51.0723 132.592 50.8365 132.72C50.6035 132.845 50.4189 133.02 50.2825 133.244C50.1461 133.466 50.0779 133.719 50.0779 134.003V138H48.8038ZM55.2555 138.145C54.8407 138.145 54.4657 138.068 54.1305 137.915C53.7953 137.759 53.5297 137.533 53.3336 137.237C53.1404 136.942 53.0439 136.58 53.0439 136.151C53.0439 135.781 53.1149 135.477 53.2569 135.239C53.399 135 53.5907 134.811 53.8322 134.672C54.0737 134.533 54.3436 134.428 54.6419 134.357C54.9402 134.286 55.2441 134.232 55.5538 134.195C55.9458 134.149 56.264 134.112 56.5083 134.084C56.7527 134.053 56.9302 134.003 57.041 133.935C57.1518 133.866 57.2072 133.756 57.2072 133.602V133.572C57.2072 133.2 57.1021 132.912 56.8919 132.707C56.6845 132.503 56.3748 132.401 55.9629 132.401C55.5339 132.401 55.1958 132.496 54.9487 132.686C54.7044 132.874 54.5353 133.082 54.4416 133.312L53.2441 133.04C53.3862 132.642 53.5936 132.321 53.8663 132.077C54.1419 131.83 54.4586 131.651 54.8166 131.54C55.1745 131.426 55.551 131.369 55.9458 131.369C56.2072 131.369 56.4842 131.401 56.7768 131.463C57.0723 131.523 57.3478 131.634 57.6035 131.795C57.862 131.957 58.0737 132.189 58.2385 132.49C58.4032 132.788 58.4856 133.176 58.4856 133.653V138H57.2413V137.105H57.1902C57.1078 137.27 56.9842 137.432 56.8194 137.591C56.6547 137.75 56.443 137.882 56.1845 137.987C55.926 138.092 55.6163 138.145 55.2555 138.145ZM55.5325 137.122C55.8848 137.122 56.1859 137.053 56.4359 136.913C56.6887 136.774 56.8805 136.592 57.0112 136.368C57.1447 136.141 57.2115 135.898 57.2115 135.639V134.795C57.166 134.841 57.0779 134.884 56.9473 134.923C56.8194 134.96 56.6731 134.993 56.5083 135.021C56.3436 135.047 56.1831 135.071 56.0268 135.094C55.8706 135.114 55.7399 135.131 55.6348 135.145C55.3876 135.176 55.1618 135.229 54.9572 135.303C54.7555 135.376 54.5936 135.483 54.4714 135.622C54.3521 135.759 54.2924 135.94 54.2924 136.168C54.2924 136.483 54.4089 136.722 54.6419 136.884C54.8748 137.043 55.1717 137.122 55.5325 137.122ZM63.2381 131.455V132.477H59.6628V131.455H63.2381ZM60.6216 129.886H61.8958V136.078C61.8958 136.325 61.9327 136.511 62.0066 136.636C62.0804 136.759 62.1756 136.842 62.2921 136.888C62.4114 136.93 62.5407 136.952 62.6799 136.952C62.7821 136.952 62.8716 136.945 62.9483 136.93C63.025 136.916 63.0847 136.905 63.1273 136.896L63.3574 137.949C63.2836 137.977 63.1784 138.006 63.0421 138.034C62.9057 138.065 62.7353 138.082 62.5307 138.085C62.1955 138.091 61.883 138.031 61.5932 137.906C61.3034 137.781 61.0691 137.588 60.8901 137.327C60.7111 137.065 60.6216 136.737 60.6216 136.342V129.886ZM67.3343 138.132C66.7207 138.132 66.1852 137.991 65.7278 137.71C65.2704 137.429 64.9153 137.036 64.6625 136.53C64.4096 136.024 64.2832 135.433 64.2832 134.757C64.2832 134.078 64.4096 133.484 64.6625 132.976C64.9153 132.467 65.2704 132.072 65.7278 131.791C66.1852 131.51 66.7207 131.369 67.3343 131.369C67.948 131.369 68.4835 131.51 68.9409 131.791C69.3983 132.072 69.7534 132.467 70.0062 132.976C70.2591 133.484 70.3855 134.078 70.3855 134.757C70.3855 135.433 70.2591 136.024 70.0062 136.53C69.7534 137.036 69.3983 137.429 68.9409 137.71C68.4835 137.991 67.948 138.132 67.3343 138.132ZM67.3386 137.062C67.7363 137.062 68.0659 136.957 68.3272 136.747C68.5886 136.537 68.7818 136.257 68.9068 135.908C69.0346 135.558 69.0985 135.173 69.0985 134.753C69.0985 134.335 69.0346 133.952 68.9068 133.602C68.7818 133.25 68.5886 132.967 68.3272 132.754C68.0659 132.541 67.7363 132.435 67.3386 132.435C66.938 132.435 66.6056 132.541 66.3414 132.754C66.0801 132.967 65.8855 133.25 65.7576 133.602C65.6326 133.952 65.5701 134.335 65.5701 134.753C65.5701 135.173 65.6326 135.558 65.7576 135.908C65.8855 136.257 66.0801 136.537 66.3414 136.747C66.6056 136.957 66.938 137.062 67.3386 137.062ZM74.9835 140.455V131.455H76.2278V132.516H76.3343C76.4082 132.379 76.5147 132.222 76.6539 132.043C76.7931 131.864 76.9863 131.707 77.2335 131.574C77.4806 131.438 77.8074 131.369 78.2136 131.369C78.742 131.369 79.2136 131.503 79.6284 131.77C80.0431 132.037 80.3684 132.422 80.6042 132.925C80.8429 133.428 80.9622 134.033 80.9622 134.74C80.9622 135.447 80.8443 136.054 80.6085 136.56C80.3727 137.062 80.0488 137.45 79.6369 137.723C79.225 137.993 78.7548 138.128 78.2264 138.128C77.8287 138.128 77.5034 138.061 77.2505 137.928C77.0005 137.794 76.8045 137.638 76.6625 137.459C76.5204 137.28 76.411 137.121 76.3343 136.982H76.2576V140.455H74.9835ZM76.2321 134.727C76.2321 135.187 76.2988 135.591 76.4324 135.938C76.5659 136.284 76.7591 136.555 77.0119 136.751C77.2647 136.945 77.5744 137.041 77.9409 137.041C78.3216 137.041 78.6397 136.94 78.8954 136.739C79.1511 136.534 79.3443 136.257 79.475 135.908C79.6085 135.558 79.6752 135.165 79.6752 134.727C79.6752 134.295 79.6099 133.908 79.4792 133.564C79.3514 133.22 79.1582 132.949 78.8997 132.75C78.644 132.551 78.3244 132.452 77.9409 132.452C77.5716 132.452 77.2591 132.547 77.0034 132.737C76.7505 132.928 76.5588 133.193 76.4281 133.534C76.2974 133.875 76.2321 134.273 76.2321 134.727ZM84.2946 138.145C83.8798 138.145 83.5048 138.068 83.1696 137.915C82.8343 137.759 82.5687 137.533 82.3727 137.237C82.1795 136.942 82.0829 136.58 82.0829 136.151C82.0829 135.781 82.1539 135.477 82.296 135.239C82.438 135 82.6298 134.811 82.8713 134.672C83.1127 134.533 83.3826 134.428 83.6809 134.357C83.9792 134.286 84.2832 134.232 84.5929 134.195C84.9849 134.149 85.3031 134.112 85.5474 134.084C85.7917 134.053 85.9693 134.003 86.0801 133.935C86.1909 133.866 86.2463 133.756 86.2463 133.602V133.572C86.2463 133.2 86.1412 132.912 85.9309 132.707C85.7235 132.503 85.4139 132.401 85.002 132.401C84.573 132.401 84.2349 132.496 83.9877 132.686C83.7434 132.874 83.5744 133.082 83.4806 133.312L82.2832 133.04C82.4252 132.642 82.6326 132.321 82.9054 132.077C83.1809 131.83 83.4977 131.651 83.8556 131.54C84.2136 131.426 84.59 131.369 84.9849 131.369C85.2463 131.369 85.5233 131.401 85.8159 131.463C86.1113 131.523 86.3869 131.634 86.6426 131.795C86.9011 131.957 87.1127 132.189 87.2775 132.49C87.4423 132.788 87.5247 133.176 87.5247 133.653V138H86.2804V137.105H86.2292C86.1468 137.27 86.0233 137.432 85.8585 137.591C85.6937 137.75 85.4821 137.882 85.2235 137.987C84.965 138.092 84.6554 138.145 84.2946 138.145ZM84.5716 137.122C84.9238 137.122 85.225 137.053 85.475 136.913C85.7278 136.774 85.9196 136.592 86.0502 136.368C86.1838 136.141 86.2505 135.898 86.2505 135.639V134.795C86.2051 134.841 86.117 134.884 85.9863 134.923C85.8585 134.96 85.7122 134.993 85.5474 135.021C85.3826 135.047 85.2221 135.071 85.0659 135.094C84.9096 135.114 84.7789 135.131 84.6738 135.145C84.4267 135.176 84.2008 135.229 83.9963 135.303C83.7946 135.376 83.6326 135.483 83.5105 135.622C83.3912 135.759 83.3315 135.94 83.3315 136.168C83.3315 136.483 83.448 136.722 83.6809 136.884C83.9139 137.043 84.2108 137.122 84.5716 137.122ZM89.2218 138V131.455H90.4533V132.494H90.5215C90.6408 132.142 90.851 131.865 91.1522 131.663C91.4561 131.459 91.7999 131.357 92.1834 131.357C92.263 131.357 92.3567 131.359 92.4647 131.365C92.5755 131.371 92.6621 131.378 92.7246 131.386V132.605C92.6735 132.591 92.5826 132.575 92.4519 132.558C92.3212 132.538 92.1905 132.528 92.0598 132.528C91.7587 132.528 91.4902 132.592 91.2544 132.72C91.0215 132.845 90.8368 133.02 90.7005 133.244C90.5641 133.466 90.4959 133.719 90.4959 134.003V138H89.2218ZM95.6735 138.145C95.2587 138.145 94.8837 138.068 94.5485 137.915C94.2132 137.759 93.9476 137.533 93.7516 137.237C93.5584 136.942 93.4618 136.58 93.4618 136.151C93.4618 135.781 93.5328 135.477 93.6749 135.239C93.8169 135 94.0087 134.811 94.2502 134.672C94.4917 134.533 94.7615 134.428 95.0598 134.357C95.3581 134.286 95.6621 134.232 95.9718 134.195C96.3638 134.149 96.682 134.112 96.9263 134.084C97.1706 134.053 97.3482 134.003 97.459 133.935C97.5698 133.866 97.6252 133.756 97.6252 133.602V133.572C97.6252 133.2 97.5201 132.912 97.3098 132.707C97.1025 132.503 96.7928 132.401 96.3809 132.401C95.9519 132.401 95.6138 132.496 95.3667 132.686C95.1223 132.874 94.9533 133.082 94.8596 133.312L93.6621 133.04C93.8042 132.642 94.0115 132.321 94.2843 132.077C94.5598 131.83 94.8766 131.651 95.2346 131.54C95.5925 131.426 95.9689 131.369 96.3638 131.369C96.6252 131.369 96.9022 131.401 97.1948 131.463C97.4902 131.523 97.7658 131.634 98.0215 131.795C98.28 131.957 98.4917 132.189 98.6564 132.49C98.8212 132.788 98.9036 133.176 98.9036 133.653V138H97.6593V137.105H97.6081C97.5257 137.27 97.4022 137.432 97.2374 137.591C97.0726 137.75 96.861 137.882 96.6025 137.987C96.3439 138.092 96.0343 138.145 95.6735 138.145ZM95.9505 137.122C96.3027 137.122 96.6039 137.053 96.8539 136.913C97.1067 136.774 97.2985 136.592 97.4292 136.368C97.5627 136.141 97.6294 135.898 97.6294 135.639V134.795C97.584 134.841 97.4959 134.884 97.3652 134.923C97.2374 134.96 97.0911 134.993 96.9263 135.021C96.7615 135.047 96.601 135.071 96.4448 135.094C96.2885 135.114 96.1578 135.131 96.0527 135.145C95.8056 135.176 95.5797 135.229 95.3752 135.303C95.1735 135.376 95.0115 135.483 94.8894 135.622C94.7701 135.759 94.7104 135.94 94.7104 136.168C94.7104 136.483 94.8269 136.722 95.0598 136.884C95.2928 137.043 95.5897 137.122 95.9505 137.122ZM41.0407 155.145C40.6259 155.145 40.2509 155.068 39.9157 154.915C39.5804 154.759 39.3148 154.533 39.1188 154.237C38.9256 153.942 38.829 153.58 38.829 153.151C38.829 152.781 38.9 152.477 39.0421 152.239C39.1841 152 39.3759 151.811 39.6174 151.672C39.8588 151.533 40.1287 151.428 40.427 151.357C40.7253 151.286 41.0293 151.232 41.339 151.195C41.731 151.149 42.0492 151.112 42.2935 151.084C42.5378 151.053 42.7154 151.003 42.8262 150.935C42.937 150.866 42.9924 150.756 42.9924 150.602V150.572C42.9924 150.2 42.8873 149.912 42.677 149.707C42.4696 149.503 42.16 149.401 41.748 149.401C41.3191 149.401 40.981 149.496 40.7338 149.686C40.4895 149.874 40.3205 150.082 40.2267 150.312L39.0293 150.04C39.1713 149.642 39.3787 149.321 39.6515 149.077C39.927 148.83 40.2438 148.651 40.6017 148.54C40.9597 148.426 41.3361 148.369 41.731 148.369C41.9924 148.369 42.2694 148.401 42.562 148.463C42.8574 148.523 43.133 148.634 43.3887 148.795C43.6472 148.957 43.8588 149.189 44.0236 149.49C44.1884 149.788 44.2708 150.176 44.2708 150.653V155H43.0265V154.105H42.9753C42.8929 154.27 42.7694 154.432 42.6046 154.591C42.4398 154.75 42.2282 154.882 41.9696 154.987C41.7111 155.092 41.4015 155.145 41.0407 155.145ZM41.3176 154.122C41.6699 154.122 41.9711 154.053 42.2211 153.913C42.4739 153.774 42.6657 153.592 42.7963 153.368C42.9299 153.141 42.9966 152.898 42.9966 152.639V151.795C42.9512 151.841 42.8631 151.884 42.7324 151.923C42.6046 151.96 42.4583 151.993 42.2935 152.021C42.1287 152.047 41.9682 152.071 41.812 152.094C41.6557 152.114 41.525 152.131 41.4199 152.145C41.1728 152.176 40.9469 152.229 40.7424 152.303C40.5407 152.376 40.3787 152.483 40.2566 152.622C40.1373 152.759 40.0776 152.94 40.0776 153.168C40.0776 153.483 40.1941 153.722 40.427 153.884C40.66 154.043 40.9569 154.122 41.3176 154.122ZM45.9679 155V148.455H47.1994V149.494H47.2676C47.3869 149.142 47.5971 148.865 47.8983 148.663C48.2022 148.459 48.546 148.357 48.9295 148.357C49.0091 148.357 49.1028 148.359 49.2108 148.365C49.3216 148.371 49.4082 148.378 49.4707 148.386V149.605C49.4196 149.591 49.3287 149.575 49.198 149.558C49.0673 149.538 48.9366 149.528 48.8059 149.528C48.5048 149.528 48.2363 149.592 48.0005 149.72C47.7676 149.845 47.5829 150.02 47.4466 150.244C47.3102 150.466 47.242 150.719 47.242 151.003V155H45.9679ZM54.0154 148.455V149.477H50.4402V148.455H54.0154ZM51.399 146.886H52.6731V153.078C52.6731 153.325 52.71 153.511 52.7839 153.636C52.8578 153.759 52.9529 153.842 53.0694 153.888C53.1887 153.93 53.318 153.952 53.4572 153.952C53.5595 153.952 53.649 153.945 53.7257 153.93C53.8024 153.916 53.862 153.905 53.9047 153.896L54.1348 154.949C54.0609 154.977 53.9558 155.006 53.8194 155.034C53.6831 155.065 53.5126 155.082 53.3081 155.085C52.9728 155.091 52.6603 155.031 52.3706 154.906C52.0808 154.781 51.8464 154.588 51.6674 154.327C51.4885 154.065 51.399 153.737 51.399 153.342V146.886ZM55.4249 155V148.455H56.699V155H55.4249ZM56.0684 147.445C55.8468 147.445 55.6564 147.371 55.4973 147.223C55.3411 147.072 55.263 146.893 55.263 146.686C55.263 146.476 55.3411 146.297 55.4973 146.149C55.6564 145.999 55.8468 145.923 56.0684 145.923C56.29 145.923 56.4789 145.999 56.6351 146.149C56.7942 146.297 56.8738 146.476 56.8738 146.686C56.8738 146.893 56.7942 147.072 56.6351 147.223C56.4789 147.371 56.29 147.445 56.0684 147.445ZM63.318 150.053L62.1632 150.257C62.1149 150.109 62.0382 149.969 61.9331 149.835C61.8308 149.702 61.6916 149.592 61.5154 149.507C61.3393 149.422 61.1191 149.379 60.8549 149.379C60.4941 149.379 60.193 149.46 59.9515 149.622C59.71 149.781 59.5893 149.987 59.5893 150.24C59.5893 150.459 59.6703 150.635 59.8322 150.768C59.9941 150.902 60.2555 151.011 60.6163 151.097L61.6561 151.335C62.2583 151.474 62.7072 151.689 63.0027 151.979C63.2981 152.268 63.4458 152.645 63.4458 153.108C63.4458 153.5 63.3322 153.849 63.1049 154.156C62.8805 154.46 62.5666 154.699 62.1632 154.872C61.7626 155.045 61.2981 155.132 60.7697 155.132C60.0368 155.132 59.4387 154.976 58.9757 154.663C58.5126 154.348 58.2285 153.901 58.1234 153.321L59.3549 153.134C59.4316 153.455 59.5893 153.697 59.8279 153.862C60.0666 154.024 60.3777 154.105 60.7612 154.105C61.1788 154.105 61.5126 154.018 61.7626 153.845C62.0126 153.669 62.1376 153.455 62.1376 153.202C62.1376 152.997 62.0609 152.825 61.9075 152.686C61.7569 152.547 61.5254 152.442 61.2129 152.371L60.1049 152.128C59.4941 151.989 59.0424 151.767 58.7498 151.463C58.46 151.159 58.3152 150.774 58.3152 150.308C58.3152 149.922 58.4231 149.584 58.639 149.294C58.8549 149.004 59.1532 148.778 59.5339 148.616C59.9146 148.452 60.3507 148.369 60.8422 148.369C61.5495 148.369 62.1064 148.523 62.5126 148.83C62.9189 149.134 63.1873 149.541 63.318 150.053ZM67.9022 148.455V149.477H64.3269V148.455H67.9022ZM65.2857 146.886H66.5598V153.078C66.5598 153.325 66.5968 153.511 66.6706 153.636C66.7445 153.759 66.8397 153.842 66.9561 153.888C67.0755 153.93 67.2047 153.952 67.3439 153.952C67.4462 153.952 67.5357 153.945 67.6124 153.93C67.6891 153.916 67.7488 153.905 67.7914 153.896L68.0215 154.949C67.9476 154.977 67.8425 155.006 67.7061 155.034C67.5698 155.065 67.3993 155.082 67.1948 155.085C66.8596 155.091 66.5471 155.031 66.2573 154.906C65.9675 154.781 65.7331 154.588 65.5542 154.327C65.3752 154.065 65.2857 153.737 65.2857 153.342V146.886ZM71.2164 155.145C70.8017 155.145 70.4267 155.068 70.0914 154.915C69.7562 154.759 69.4906 154.533 69.2946 154.237C69.1014 153.942 69.0048 153.58 69.0048 153.151C69.0048 152.781 69.0758 152.477 69.2179 152.239C69.3599 152 69.5517 151.811 69.7931 151.672C70.0346 151.533 70.3045 151.428 70.6028 151.357C70.9011 151.286 71.2051 151.232 71.5147 151.195C71.9068 151.149 72.225 151.112 72.4693 151.084C72.7136 151.053 72.8912 151.003 73.002 150.935C73.1127 150.866 73.1681 150.756 73.1681 150.602V150.572C73.1681 150.2 73.063 149.912 72.8528 149.707C72.6454 149.503 72.3358 149.401 71.9238 149.401C71.4949 149.401 71.1568 149.496 70.9096 149.686C70.6653 149.874 70.4963 150.082 70.4025 150.312L69.2051 150.04C69.3471 149.642 69.5545 149.321 69.8272 149.077C70.1028 148.83 70.4196 148.651 70.7775 148.54C71.1355 148.426 71.5119 148.369 71.9068 148.369C72.1681 148.369 72.4451 148.401 72.7377 148.463C73.0332 148.523 73.3088 148.634 73.5645 148.795C73.823 148.957 74.0346 149.189 74.1994 149.49C74.3642 149.788 74.4466 150.176 74.4466 150.653V155H73.2022V154.105H73.1511C73.0687 154.27 72.9451 154.432 72.7804 154.591C72.6156 154.75 72.4039 154.882 72.1454 154.987C71.8869 155.092 71.5772 155.145 71.2164 155.145ZM71.4934 154.122C71.8457 154.122 72.1468 154.053 72.3968 153.913C72.6497 153.774 72.8414 153.592 72.9721 153.368C73.1056 153.141 73.1724 152.898 73.1724 152.639V151.795C73.127 151.841 73.0389 151.884 72.9082 151.923C72.7804 151.96 72.6341 151.993 72.4693 152.021C72.3045 152.047 72.144 152.071 71.9877 152.094C71.8315 152.114 71.7008 152.131 71.5957 152.145C71.3485 152.176 71.1227 152.229 70.9181 152.303C70.7164 152.376 70.5545 152.483 70.4324 152.622C70.313 152.759 70.2534 152.94 70.2534 153.168C70.2534 153.483 70.3699 153.722 70.6028 153.884C70.8358 154.043 71.1326 154.122 71.4934 154.122ZM81.0485 150.053L79.8936 150.257C79.8453 150.109 79.7686 149.969 79.6635 149.835C79.5613 149.702 79.4221 149.592 79.2459 149.507C79.0698 149.422 78.8496 149.379 78.5854 149.379C78.2246 149.379 77.9235 149.46 77.682 149.622C77.4405 149.781 77.3198 149.987 77.3198 150.24C77.3198 150.459 77.4007 150.635 77.5627 150.768C77.7246 150.902 77.986 151.011 78.3468 151.097L79.3865 151.335C79.9888 151.474 80.4377 151.689 80.7331 151.979C81.0286 152.268 81.1763 152.645 81.1763 153.108C81.1763 153.5 81.0627 153.849 80.8354 154.156C80.611 154.46 80.2971 154.699 79.8936 154.872C79.4931 155.045 79.0286 155.132 78.5002 155.132C77.7672 155.132 77.1692 154.976 76.7061 154.663C76.2431 154.348 75.959 153.901 75.8539 153.321L77.0854 153.134C77.1621 153.455 77.3198 153.697 77.5584 153.862C77.7971 154.024 78.1081 154.105 78.4917 154.105C78.9093 154.105 79.2431 154.018 79.4931 153.845C79.7431 153.669 79.8681 153.455 79.8681 153.202C79.8681 152.997 79.7914 152.825 79.638 152.686C79.4874 152.547 79.2559 152.442 78.9434 152.371L77.8354 152.128C77.2246 151.989 76.7729 151.767 76.4803 151.463C76.1905 151.159 76.0456 150.774 76.0456 150.308C76.0456 149.922 76.1536 149.584 76.3695 149.294C76.5854 149.004 76.8837 148.778 77.2644 148.616C77.6451 148.452 78.0811 148.369 78.5726 148.369C79.28 148.369 79.8368 148.523 80.2431 148.83C80.6493 149.134 80.9178 149.541 81.0485 150.053Z" fill="white"/>
</svg>
