<svg width="60" height="60" viewBox="0 5 30 20" fill="none" xmlns="http://www.w3.org/2000/svg">
<!--<path d="M29.3277 7.91901V5.37788H26.6548V2.74784H23.9818V0H8.01816V2.74784H5.34581V5.37788H2.67291V7.91901H0V24.0816H2.67291V26.6227H5.34581V29.2522H8.01816V32H23.9818V29.2522H26.6548V26.6227H29.3277V24.0816H32V7.91901H29.3277Z" fill="white"/>-->
<path d="M21.1868 15.1442V13.4331H23V8H21.1868H19.5224H19.3736H17.7092V9.87196H16.0695V11.6559H14.3395V8H9V24H14.3395V20.519H16.0695V22.2592H17.7092V24H19.3736H19.5224H21.1868H23V18.7272H21.1868V16.8553H19.5224V15.1442H21.1868Z" fill="white"/>
</svg>
