<svg width="59" height="47" viewBox="0 0 59 47" fill="none" xmlns="http://www.w3.org/2000/svg">
<path id="Vector" d="M59 4.60626V6.58339C57.8865 9.61295 55.9662 12.1193 54.3243 14.8082C52.0972 18.4583 50.0179 22.1936 48.1715 26.0809C46.8875 28.788 45.649 31.5256 44.3707 34.2388C43.5981 35.8753 42.7345 37.457 41.4619 38.7223C39.2121 40.961 36.6271 41.91 33.6331 40.8211C31.2583 39.9633 29.8039 38.0227 28.8324 35.638C27.6167 32.651 27.3837 29.4876 27.4973 26.2756C27.5087 25.9227 27.5257 25.5638 27.5428 25.2109C27.0769 25.8193 26.7304 26.4459 26.4009 27.0907C24.6226 30.5705 23.208 34.2388 21.5604 37.7915C20.6457 39.7626 19.6231 41.6606 18.3335 43.3883C14.7315 48.2186 8.039 48.3463 4.51093 42.9077C3.17015 40.8394 2.27818 38.5641 1.62484 36.1612C0.897633 33.4905 0.47154 30.7591 0.215882 27.9911C0.198839 27.8329 0.306789 27.5652 0 27.547C0 27.2185 0 26.89 0 26.5615C0.0227251 26.5615 0.0511255 26.5615 0.0738506 26.5554C0.0511255 26.5189 0.0227251 26.4763 0 26.4398C0 23.1912 0 19.9427 0 16.6941C0.0284064 16.6576 0.0568124 16.615 0.0795374 16.5785C0.0511311 16.5785 0.0227251 16.5785 0 16.5785C0 16.3291 0 16.0858 0 15.8363C0.0113625 15.8485 0.0284018 15.8668 0.0397644 15.8789C0.0511269 15.8911 0.0738562 15.9093 0.0795374 15.9033C0.221569 15.7633 0.198839 15.5687 0.215882 15.3862C0.363595 13.768 0.562445 12.1558 0.931728 10.5802C1.44304 8.37801 2.05662 6.20013 3.48262 4.44201C5.32335 2.17288 7.6754 1.30294 10.4251 1.91737C12.9647 2.48314 14.4077 4.30817 15.0383 6.93623C15.1122 7.23432 15.1747 7.53849 15.2258 7.83658C15.6462 10.2274 15.561 12.6243 15.3849 15.0272C15.311 16.031 15.2258 17.0287 15.1406 18.0325C15.419 17.7283 15.6064 17.3998 15.7939 17.0713C18.4528 12.4296 21.3616 8.00084 25.0203 4.18042C26.4577 2.67781 28.0371 1.38203 29.946 0.615513C33.8036 -0.935769 37.1669 0.48776 38.7008 4.40551C39.9621 7.62974 39.8144 10.9939 39.3826 14.3641C39.3655 14.5162 39.2121 14.6987 39.3655 14.8021C39.536 14.9177 39.6269 14.7048 39.7178 14.5771C39.7803 14.498 39.8314 14.4128 39.8882 14.3276C42.53 10.6471 45.3934 7.19174 48.8646 4.36901C50.4667 3.06715 52.1597 1.95387 54.1823 1.55845C56.2219 1.16302 57.8865 2.04513 58.7955 3.99792C58.8296 4.07092 58.8352 4.28992 59 4.10134V4.47243C59 4.47243 58.9489 4.47243 58.9205 4.47851C58.9489 4.51501 58.9716 4.5576 59 4.5941V4.60626Z" fill="#CACACA"/>
</svg>
