<svg width="35" height="35" viewBox="0 0 35 35" fill="none" xmlns="http://www.w3.org/2000/svg">
<path d="M17.6082 0.00295128C8.11308 -0.0776505 0.00823331 7.56142 6.70586e-06 17.5297C-0.0082199 26.9239 7.55367 34.8871 17.4026 35.0022C26.9092 35.0351 34.9729 27.4207 34.9976 17.5034C35.0223 8.09438 27.4637 0.0884878 17.6082 0.00295128ZM17.2676 32.2946C9.24177 32.1811 2.68517 25.6294 2.70327 17.5149C2.6572 9.34289 9.35694 2.59537 17.7053 2.699C25.7295 2.79934 32.4359 9.39717 32.3009 17.7682C32.171 25.7544 25.5979 32.4147 17.2676 32.2963V32.2946Z" fill="white"/>
<g clip-path="url(#clip0_4_697)">
<path d="M28.6171 20.4152C28.5157 20.2399 28.3148 20.2095 28.0964 20.3384C27.8819 20.465 27.6685 20.5932 27.455 20.7207C24.7327 22.3446 22.0108 23.9692 19.2862 25.5895C19.2133 25.6329 19.1062 25.6536 19.0237 25.6379C18.3889 25.5197 17.7562 25.3895 17.1224 25.264C14.3713 24.7201 11.6199 24.1789 8.87006 23.629C8.68511 23.592 8.4922 23.5229 8.33741 23.4174C7.59295 22.9095 7.64466 21.4826 8.42392 21.0302C8.55783 20.9527 8.74676 20.8973 8.89227 20.9257C12.2188 21.5747 15.543 22.2348 18.8662 22.9012C19.1059 22.9493 19.2965 22.9152 19.5059 22.7894C21.3263 21.6946 23.1527 20.6099 24.9773 19.5221C26.1036 18.8507 27.2299 18.18 28.3559 17.5082C28.576 17.377 28.6453 17.1914 28.5442 17.0124C28.4401 16.8275 28.2432 16.7997 28.0132 16.937C27.571 17.2004 27.1285 17.4628 26.6867 17.7262C24.1921 19.2136 21.6985 20.702 19.2017 22.1854C19.1294 22.2284 19.0213 22.2461 18.9385 22.2301C18.0548 22.0608 17.1731 21.8816 16.2904 21.7069C13.7777 21.2095 11.2649 20.7127 8.75173 20.2166C8.46568 20.1601 8.21941 20.0346 8.03246 19.8056C7.57571 19.246 7.65593 18.2087 8.19621 17.7296C8.40039 17.5486 8.63009 17.4505 8.91216 17.5299C9.06032 17.5716 9.21511 17.5907 9.36659 17.6207C10.7905 17.9035 12.2148 18.1866 13.6391 18.4688C13.901 18.5205 14.0733 18.4237 14.1124 18.2097C14.1479 18.0144 14.0137 17.8611 13.7611 17.811C13.4903 17.7573 13.2195 17.7052 12.9487 17.6514C11.5897 17.3817 10.235 17.0859 8.87006 16.8518C8.10141 16.7199 7.72122 16.2809 7.67018 15.5931C7.63306 15.0917 7.75835 14.6419 8.14881 14.3001C8.29299 14.1739 8.45276 14.0967 8.66323 14.1378C11.9685 14.7812 15.2752 15.4175 18.5805 16.0619C18.7959 16.104 18.971 16.0696 19.1596 15.9594C22.1742 14.1999 25.1921 12.4464 28.2091 10.6919C28.393 10.5851 28.465 10.4656 28.4351 10.3077C28.3997 10.1184 28.2644 10.0539 28.0937 10.0202C24.7039 9.34945 21.314 8.67571 17.9229 8.0103C17.8102 7.98827 17.664 8.01298 17.5642 8.0704C14.9112 9.6042 12.2629 11.1463 9.6122 12.6841C9.07656 12.9946 8.53098 13.2878 7.997 13.6006C7.8369 13.6944 7.68178 13.8113 7.55583 13.9475C6.74143 14.8279 6.83556 16.3103 7.74675 17.0875C7.77094 17.1082 7.79381 17.1306 7.81801 17.153C6.83921 17.9873 6.8001 19.7521 7.90651 20.5801C7.86011 20.6169 7.8137 20.6469 7.77459 20.6853C6.90617 21.5403 6.95158 23.1005 7.86707 23.8774C8.17764 24.1412 8.54822 24.246 8.93967 24.3231C12.2871 24.9815 15.6332 25.6469 18.9783 26.3157C19.1871 26.3574 19.3581 26.331 19.5424 26.2199C20.9213 25.3889 22.3051 24.5669 23.688 23.7425C25.2703 22.799 26.8527 21.8559 28.4348 20.9123C28.6539 20.7818 28.7212 20.5948 28.6171 20.4152ZM16.6362 10.8702C17.3428 10.4586 18.0485 10.0449 18.7592 9.64025C18.8364 9.59618 18.9481 9.57481 19.0346 9.59151C20.7777 9.93139 22.5196 10.2779 24.2617 10.6238C24.2823 10.6278 24.3022 10.6342 24.3728 10.6522C24.2074 10.7497 24.0807 10.8248 23.9535 10.8989C23.3419 11.2545 22.7314 11.6121 22.1165 11.9623C22.0462 12.0024 21.9471 12.0298 21.8709 12.0147C20.1225 11.6738 18.375 11.3263 16.6275 10.9794C16.601 10.9741 16.5752 10.9637 16.5255 10.9487C16.5722 10.9153 16.6024 10.8899 16.6362 10.8702Z" fill="white"/>
<path d="M27.9708 13.5112C27.1723 13.9866 26.3745 14.4624 25.5763 14.9381C23.4248 16.2215 21.274 17.5056 19.1202 18.7853C19.0559 18.8234 18.9614 18.8397 18.8878 18.8267C18.5345 18.7646 18.1838 18.6881 17.8321 18.6184C17.491 18.5506 17.15 18.4848 16.844 18.4251C16.6385 18.4247 16.5053 18.5316 16.4744 18.6922C16.4439 18.8511 16.5295 19.005 16.6849 19.0651C16.7257 19.0811 16.7694 19.0908 16.8129 19.0995C17.5169 19.238 18.2216 19.3722 18.9243 19.5165C19.0708 19.5465 19.1914 19.5225 19.317 19.447C20.318 18.8471 21.3207 18.2511 22.323 17.6535C24.3181 16.4642 26.3132 15.275 28.3079 14.0848C28.5061 13.9666 28.5697 13.7759 28.4736 13.608C28.3732 13.432 28.1707 13.392 27.9705 13.5112H27.9708Z" fill="white"/>
<path d="M15.9859 16.6689C15.5732 16.5945 15.1615 16.5124 14.7495 16.4339C14.67 16.4189 14.5898 16.4072 14.4903 16.3905C14.5155 17.5454 14.54 18.6798 14.5656 19.8487C14.7999 19.6951 15.0021 19.5709 15.1947 19.4331C15.2915 19.3639 15.3491 19.372 15.4287 19.4601C15.6657 19.7228 15.9123 19.9766 16.1791 20.2594C16.1851 20.1983 16.1891 20.1769 16.1887 20.1555C16.1649 19.0484 16.1393 17.9413 16.1188 16.8342C16.1168 16.7331 16.088 16.687 15.9859 16.6686V16.6689Z" fill="white"/>
</g>
<defs>
<clipPath id="clip0_4_697">
<rect width="21.6652" height="18.3321" fill="white" transform="translate(7 8.00232)"/>
</clipPath>
</defs>
</svg>
