<svg width="44" height="53" viewBox="0 0 44 53" fill="none" xmlns="http://www.w3.org/2000/svg">
<path id="Vector" d="M43.8108 23.1669V15.5975C43.8108 6.99594 36.8217 0 28.2284 0H6.80266C3.47995 0 0.787415 2.69516 0.787415 6.0211V46.9789C0.787415 50.3048 3.47995 53 6.80266 53H16.9284C18.5324 53 20.0505 52.3692 21.182 51.2367L22.2991 50.1185L23.4162 51.2367C24.5477 52.3692 26.0658 53 27.6699 53H38.526C41.4333 53 43.7965 50.6346 43.7965 47.7244V33.5031C43.7965 32.0982 43.2522 30.7649 42.2497 29.7758L40.8175 28.3422L42.2497 26.9086C43.2522 25.9051 43.7965 24.5861 43.7965 23.1812L43.8108 23.1669ZM38.5403 49.8604H27.6842C27.4121 49.8604 27.1543 49.8174 26.9108 49.7601L28.7297 41.818C29.3599 38.8217 32.3102 36.9007 35.3178 37.5315L40.6886 38.664V47.7244C40.6886 48.8999 39.729 49.8604 38.5546 49.8604H38.5403Z" fill="white"/>
</svg>
