<svg width="203" height="62" viewBox="0 0 203 62" fill="none" xmlns="http://www.w3.org/2000/svg">
<g id="profit">
<path id="Vector" d="M50.3125 29.1984C50.3125 26.5787 48.1969 24.4677 45.5716 24.4677H-0.0020752V33.9376H13.2435V62.0085H22.7338V33.9376H45.5631C48.1884 33.9376 50.304 31.8266 50.304 29.2069L50.3125 29.1984Z" fill="white"/>
<path id="Vector_2" d="M15.1976 5.06989H16.6165H17.3387V8.48654H21.0005V19.5419H17.3387V22.9755H16.6165H15.1976V19.5419H11.5358V8.48654H15.1976V5.06989Z" fill="white"/>
<path id="Vector_3" d="M26.71 7.68958H28.1544H28.8766V10.9791H32.5384V18.143H28.8766V21.441H28.1544H26.71V18.143H23.0482V10.9791H26.71V7.68958Z" fill="white"/>
<path id="Vector_4" d="M38.2394 0H39.6668H40.3889V3.36579H44.0508V17.6852H40.3889V21.0764H39.6668H38.2394V17.6852H34.5605V3.36579H38.2394V0Z" fill="white"/>
<path id="Vector_5" d="M3.65979 0.457825H5.10415H5.82633V3.82361H9.48819V18.143H5.82633V21.5088H5.10415H3.65979V18.143H-0.0020752V3.82361H3.65979V0.457825Z" fill="white"/>
<path id="Vector_6" d="M46.0984 6.01092V15.5063C52.1392 16.1337 56.8376 21.229 56.8376 27.4265C56.8376 34.0394 51.4425 39.4145 44.8239 39.4145H28.0609V62.0085H37.5512V48.859H44.8239C56.6931 48.859 66.3279 39.2703 66.3279 27.418C66.3279 15.5657 57.3728 6.65525 46.0984 6.00244V6.01092Z" fill="white"/>
<path id="Vector_7" d="M84.6797 23.764V30.4193H80.2957V11.0554H87.1606C92.0459 11.0554 94.4843 13.124 94.4843 17.2359C94.4843 19.1858 93.7876 20.7712 92.3858 21.9666C90.9669 23.1705 89.1062 23.7725 86.7528 23.7725H84.6797V23.764ZM84.6797 14.4212V20.4491H86.3874C88.7239 20.4491 89.8794 19.4402 89.8794 17.397C89.8794 15.3538 88.7239 14.4212 86.3874 14.4212H84.6797ZM113.626 30.4277H108.597L105.589 25.4511C105.351 25.0696 105.13 24.7305 104.935 24.4422C104.714 24.1286 104.527 23.8912 104.306 23.6707C104.085 23.4503 103.873 23.3062 103.635 23.1875C103.397 23.0688 103.15 23.0179 102.887 23.0179H101.706V30.4193H97.3221V11.0554H104.255C108.979 11.0554 111.332 12.8103 111.332 16.3203C111.332 17.0155 111.213 17.6174 111.018 18.1939C110.797 18.7704 110.508 19.2961 110.126 19.7539C109.744 20.2117 109.285 20.5932 108.749 20.9323C108.223 21.2714 107.619 21.5343 106.965 21.7293V21.7801C107.254 21.8734 107.518 22.0175 107.806 22.2125C108.07 22.4329 108.333 22.6449 108.58 22.9331C108.843 23.196 109.089 23.4842 109.302 23.7979C109.54 24.1116 109.735 24.4253 109.93 24.7135L113.618 30.4362L113.626 30.4277ZM101.706 14.3194V19.7284H103.609C104.552 19.7284 105.292 19.4402 105.869 18.9145C106.447 18.3635 106.736 17.6852 106.736 16.8713C106.736 15.1672 105.699 14.3279 103.677 14.3279H101.706V14.3194ZM123.354 30.7584C120.585 30.7584 118.325 29.8682 116.566 28.0708C114.807 26.265 113.941 23.9166 113.941 21.0086C113.941 17.9565 114.833 15.4809 116.617 13.5819C118.401 11.6828 120.738 10.7502 123.677 10.7502C126.447 10.7502 128.69 11.6404 130.398 13.4632C132.106 15.269 132.972 17.6428 132.972 20.6271C132.972 23.6114 132.08 26.1294 130.296 27.9776C128.537 29.8512 126.226 30.7669 123.363 30.7669L123.354 30.7584ZM123.55 14.489C122.029 14.489 120.806 15.0655 119.888 16.2185C118.996 17.3715 118.537 18.8891 118.537 20.7628C118.537 22.6364 118.996 24.1964 119.888 25.3324C120.806 26.4346 121.987 27.0111 123.456 27.0111C124.926 27.0111 126.15 26.46 127.042 25.3748C127.908 24.2896 128.367 22.7805 128.367 20.856C128.367 18.8382 127.934 17.2783 127.067 16.1677C126.226 15.0401 125.045 14.489 123.55 14.489ZM147.416 14.6077H140.551V19.3639H146.863V22.8992H140.551V30.4193H136.192V11.0554H147.416V14.6162V14.6077ZM156.592 11.0554V14.4466H154.977V27.062H156.592V30.4277H148.979V27.062H150.593V14.4466H148.979V11.0554H156.592ZM173.015 14.6077H167.475V30.4193H163.091V14.6077H157.577V11.0469H173.015V14.6077Z" fill="white"/>
<path id="Vector_8" d="M95.7333 41.0931H90.1937V56.9301H85.8097V41.0931H80.2957V37.5578H95.7333V41.0931ZM114.637 56.9301H109.608L106.6 51.9281C106.362 51.5635 106.141 51.2329 105.946 50.9192C105.725 50.6309 105.538 50.3681 105.317 50.1731C105.096 49.9527 104.884 49.7916 104.646 49.6644C104.408 49.5712 104.162 49.4949 103.898 49.4949H102.717V56.9216H98.3331V37.5493H105.266C109.99 37.5493 112.343 39.3042 112.343 42.8141C112.343 43.4839 112.224 44.1113 112.029 44.6878C111.808 45.2643 111.519 45.773 111.137 46.2223C110.772 46.6801 110.321 47.0871 109.761 47.4262C109.234 47.7653 108.631 48.0027 107.976 48.1977V48.2486C108.265 48.3418 108.529 48.486 108.817 48.7064C109.081 48.9014 109.344 49.1388 109.591 49.4016C109.854 49.6899 110.1 49.9781 110.313 50.2918C110.551 50.58 110.772 50.8937 110.941 51.2074L114.629 56.9301H114.637ZM102.717 40.8303V46.2138H104.62C105.563 46.2138 106.303 45.951 106.88 45.4C107.458 44.8489 107.747 44.1706 107.747 43.3822C107.747 41.6781 106.71 40.8388 104.688 40.8388H102.717V40.8303ZM133.516 56.9301H128.75L127.373 52.6063H120.457L119.081 56.9301H114.34L121.417 37.5578H126.592L133.507 56.9301H133.516ZM126.362 49.2659L124.289 42.7548C124.119 42.2716 124.026 41.695 123.949 41.0253H123.856C123.805 41.5764 123.686 42.1529 123.516 42.7039L121.4 49.2659H126.362ZM135.929 56.9301V37.5578H142.819C149.71 37.5578 153.176 40.7031 153.176 47.0023C153.176 50.0035 152.216 52.4113 150.338 54.2087C148.461 56.0145 145.954 56.9216 142.828 56.9216H135.937L135.929 56.9301ZM140.313 41.0931V53.3778H142.479C144.383 53.3778 145.852 52.8267 146.931 51.6991C148.019 50.5461 148.571 49.0116 148.571 47.0617C148.571 45.1117 148.019 43.7722 146.957 42.7124C145.869 41.6527 144.383 41.1016 142.454 41.1016H140.313V41.0931ZM162.369 37.5662V40.932H160.755V53.5474H162.369V56.9386H154.756V53.5474H156.371V40.932H154.756V37.5662H162.369ZM182.624 56.9301H178.215L170.22 44.7471C169.735 44.0519 169.421 43.5009 169.234 43.1363H169.183C169.26 43.8315 169.302 44.8658 169.302 46.2817V56.9301H165.156V37.5578H169.88L177.586 49.3338C177.926 49.8848 178.257 50.419 178.546 50.9192H178.622C178.529 50.4868 178.503 49.5966 178.503 48.2486V37.5578H182.624V56.9301ZM202.998 55.633C201.12 56.7182 198.758 57.2692 195.938 57.2692C192.802 57.2692 190.347 56.4045 188.546 54.6749C186.762 52.9454 185.853 50.5885 185.853 47.5619C185.853 44.5352 186.838 42.0342 188.818 40.1097C190.772 38.1851 193.397 37.2271 196.668 37.2271C198.716 37.2271 200.543 37.5154 202.114 38.0919V42.1783C200.594 41.3135 198.792 40.8812 196.626 40.8812C194.799 40.8812 193.329 41.4577 192.191 42.6361C191.035 43.8146 190.458 45.4 190.458 47.3499C190.458 49.2999 190.984 50.8853 191.995 51.9874C193.032 53.0726 194.4 53.5982 196.142 53.5982C197.204 53.5982 198.019 53.4541 198.648 53.1659V49.3931H194.774V45.8832H203.006V55.6414L202.998 55.633Z" fill="white"/>
</g>
</svg>
