<svg width="169" height="53" viewBox="0 0 169 53" fill="none" xmlns="http://www.w3.org/2000/svg">
<path d="M162.811 23.1669V15.5975C162.811 6.99594 155.822 0 147.228 0H125.803C122.48 0 119.787 2.69516 119.787 6.0211V46.9789C119.787 50.3048 122.48 53 125.803 53H135.928C137.532 53 139.051 52.3692 140.182 51.2367L141.299 50.1185L142.416 51.2367C143.548 52.3692 145.066 53 146.67 53H157.526C160.433 53 162.796 50.6346 162.796 47.7244V33.5031C162.796 32.0982 162.252 30.7649 161.25 29.7758L159.817 28.3422L161.25 26.9086C162.252 25.9051 162.796 24.5861 162.796 23.1812L162.811 23.1669ZM157.54 49.8604H146.684C146.412 49.8604 146.154 49.8174 145.911 49.7601L147.73 41.818C148.36 38.8217 151.31 36.9007 154.318 37.5315L159.689 38.664V47.7244C159.689 48.8999 158.729 49.8604 157.555 49.8604H157.54Z" fill="white"/>
<path d="M6.72928 18.221H4.98199V26.1344C4.98199 27.1809 4.75284 27.9407 4.29454 28.4425C3.83623 28.9299 3.2347 29.188 2.50428 29.188C1.71657 29.188 1.10072 28.9299 0.656738 28.4138C0.212755 27.8977 -0.0020752 27.1379 -0.0020752 26.1487V7.18228C-0.0020752 6.10708 0.241399 5.33294 0.714027 4.84552C1.20098 4.3581 1.97437 4.12872 3.04852 4.12872H11.1548C12.2719 4.12872 13.2315 4.17173 14.0192 4.27208C14.8069 4.37243 15.523 4.5588 16.1675 4.84552C16.9409 5.17525 17.6283 5.634 18.2156 6.23611C18.8028 6.83822 19.2611 7.54068 19.5618 8.34349C19.8626 9.14631 20.0201 9.99213 20.0201 10.8953C20.0201 12.7303 19.5045 14.1926 18.4733 15.2964C17.4422 16.4003 15.8667 17.1744 13.7614 17.6332C14.6494 18.1063 15.4944 18.7944 16.2964 19.7119C17.0984 20.6294 17.8145 21.6042 18.459 22.6364C19.0892 23.6686 19.5905 24.6005 19.9342 25.4463C20.2922 26.2778 20.4641 26.8512 20.4641 27.1666C20.4641 27.482 20.3639 27.8117 20.149 28.1271C19.9485 28.4425 19.6621 28.7005 19.304 28.8869C18.946 29.0733 18.5306 29.1593 18.058 29.1593C17.4995 29.1593 17.0268 29.0303 16.6545 28.7579C16.2678 28.4998 15.9527 28.1558 15.6662 27.7544C15.3941 27.353 15.0217 26.7509 14.5491 25.9767L12.5583 22.6508C11.8422 21.4322 11.1978 20.5004 10.6392 19.8696C10.0806 19.2245 9.50776 18.7944 8.92055 18.565C8.33335 18.3356 7.60292 18.2066 6.72928 18.2066V18.221ZM9.57937 7.87041H4.98199V14.637H9.45047C10.6535 14.637 11.6561 14.5366 12.4724 14.3216C13.2888 14.1209 13.9189 13.7625 14.3486 13.2607C14.7783 12.759 14.9931 12.0708 14.9931 11.1963C14.9931 10.5082 14.8212 9.90611 14.4775 9.39002C14.1338 8.87392 13.6468 8.48685 13.031 8.2288C12.4438 7.98509 11.298 7.85607 9.59369 7.85607L9.57937 7.87041Z" fill="white"/>
<path d="M43.9236 25.9624L42.7492 22.8658H32.7524L31.578 26.0197C31.1197 27.2526 30.733 28.0841 30.4036 28.5142C30.0742 28.9443 29.5443 29.1593 28.8139 29.1593C28.1837 29.1593 27.6395 28.9299 27.1525 28.4712C26.6656 28.0124 26.4364 27.4963 26.4364 26.9086C26.4364 26.5788 26.4937 26.2204 26.6083 25.862C26.7228 25.5036 26.909 25.0019 27.1668 24.3711L33.4542 8.38652C33.6261 7.92777 33.8552 7.38301 34.0987 6.73789C34.3565 6.09277 34.6143 5.56234 34.9007 5.13226C35.1872 4.70219 35.5595 4.35812 36.0322 4.10008C36.4905 3.84203 37.0634 3.69867 37.7508 3.69867C38.4383 3.69867 39.0255 3.82769 39.4838 4.10008C39.9421 4.35812 40.3288 4.70219 40.6152 5.11793C40.9017 5.53367 41.1451 5.97809 41.3313 6.45117C41.5318 6.92426 41.7753 7.56938 42.0761 8.35785L48.5067 24.2421C49.0079 25.4463 49.2657 26.3351 49.2657 26.8799C49.2657 27.4247 49.0223 27.9694 48.5496 28.4569C48.077 28.9299 47.5041 29.1736 46.831 29.1736C46.4443 29.1736 46.1006 29.102 45.8284 28.9586C45.542 28.8153 45.3128 28.6289 45.1267 28.3852C44.9405 28.1415 44.7256 27.7687 44.5108 27.2813C44.296 26.7795 44.1098 26.3495 43.9523 25.9624H43.9236ZM34.0557 19.1241H41.4029L37.6935 8.95996L34.0557 19.1241Z" fill="white"/>
<path d="M56.5413 26.1344V6.72355C56.5413 5.72004 56.7704 4.96023 57.2288 4.45847C57.6871 3.95672 58.2743 3.69867 59.0047 3.69867C59.7351 3.69867 60.3653 3.94238 60.8236 4.44414C61.2819 4.9459 61.5254 5.7057 61.5254 6.72355V26.1201C61.5254 27.1379 61.2962 27.8977 60.8236 28.3995C60.3653 28.9013 59.7494 29.1593 59.0047 29.1593C58.2599 29.1593 57.7014 28.9013 57.2288 28.3995C56.7704 27.8834 56.527 27.1379 56.527 26.1201L56.5413 26.1344Z" fill="white"/>
<path d="M75.5467 6.72355V15.3538L85.3286 5.1466C85.8013 4.65918 86.2023 4.28644 86.5317 4.05707C86.8611 3.82769 87.3051 3.69867 87.8493 3.69867C88.5654 3.69867 89.1383 3.91371 89.5823 4.32945C90.0262 4.74519 90.2411 5.26129 90.2411 5.8634C90.2411 6.59453 89.8687 7.31133 89.1096 8.02813L83.0514 13.7768L90.0263 23.7833C90.5132 24.4715 90.8856 25.0879 91.129 25.604C91.3725 26.1201 91.5014 26.6362 91.5014 27.1236C91.5014 27.6684 91.2866 28.1415 90.8569 28.5572C90.4273 28.9586 89.8401 29.1593 89.1096 29.1593C88.4222 29.1593 87.8493 29.016 87.4196 28.7149C86.99 28.4138 86.6176 28.0268 86.3168 27.525C86.0161 27.0376 85.744 26.5788 85.5148 26.1774L79.6284 17.1028L75.5467 21.0165V26.1058C75.5467 27.1379 75.3175 27.8977 74.8449 28.3995C74.3723 28.9013 73.7707 29.145 73.026 29.145C72.5963 29.145 72.1953 29.0303 71.7943 28.8153C71.4076 28.5859 71.1068 28.2848 70.892 27.9121C70.7345 27.5967 70.6342 27.2383 70.6056 26.8226C70.5769 26.4068 70.5483 25.8047 70.5483 25.0306V6.72355C70.5483 5.72004 70.7631 4.96023 71.2071 4.45847C71.6511 3.95672 72.2526 3.69867 73.0117 3.69867C73.7707 3.69867 74.3723 3.94238 74.8306 4.44414C75.2889 4.9459 75.5324 5.7057 75.5324 6.72355H75.5467Z" fill="white"/>
<path d="M99.6076 26.1344V6.72355C99.6076 5.72004 99.8368 4.96023 100.295 4.45847C100.753 3.95672 101.341 3.69867 102.071 3.69867C102.801 3.69867 103.432 3.94238 103.89 4.44414C104.348 4.9459 104.592 5.7057 104.592 6.72355V26.1201C104.592 27.1379 104.363 27.8977 103.89 28.3995C103.432 28.9013 102.816 29.1593 102.071 29.1593C101.326 29.1593 100.768 28.9013 100.295 28.3995C99.8368 27.8834 99.5933 27.1379 99.5933 26.1201L99.6076 26.1344Z" fill="white"/>
<path d="M43.7517 37.7465C47.0028 37.7465 48.7931 40.3413 48.7931 43.3949C48.7931 46.4484 46.8596 49.1149 43.7517 49.1149H40.3001V37.7465H43.7517ZM41.8899 47.624H43.2505C43.5082 47.624 43.7517 47.624 44.0095 47.6097C46.0862 47.4376 47.1317 45.2729 47.1317 43.3949C47.1317 41.5169 46.1721 39.3808 44.0095 39.2518C43.7517 39.2375 43.5082 39.2375 43.2505 39.2375H41.8899V47.6383V47.624Z" fill="white"/>
<path d="M60.5658 37.7465V39.2375H54.8943V42.463H59.463V43.8393H54.8943V47.624H60.5658V49.1149H53.3045V37.7465H60.5658Z" fill="white"/>
<path d="M71.8516 38.5207L71.3073 39.7536C70.7344 39.2948 69.7462 38.9938 69.0015 38.9938C67.9273 38.9938 66.6097 39.4525 66.6097 40.7428C66.6097 42.7928 72.0664 42.205 72.0664 45.6887C72.0664 47.9107 70.3907 49.3157 68.2281 49.3157C67.025 49.3157 65.4783 48.9143 64.5187 48.1688L65.2061 46.7639C65.8793 47.2656 67.2828 47.8247 68.0992 47.8247C69.2449 47.8247 70.4194 47.2513 70.4194 45.9611C70.4194 43.4953 65.0056 44.0974 65.0056 40.6998C65.0056 38.5064 66.9105 37.5745 68.8439 37.5745C69.8465 37.5745 71.0925 37.8469 71.8516 38.535V38.5207Z" fill="white"/>
<path d="M78.1532 49.1149H76.5778V37.7465H78.1532V49.1149Z" fill="white"/>
<path d="M92.017 38.8074L91.3295 40.1406C90.685 39.5529 89.5106 39.0654 88.6226 39.0654C86.2309 39.0654 84.3547 41.0581 84.3547 43.4092C84.3547 45.9037 86.1306 47.796 88.637 47.796C89.2098 47.796 90.0692 47.495 90.4415 47.0506V43.4809H92.0026V47.839C91.4441 48.7852 89.4104 49.287 88.3648 49.287C85.0565 49.287 82.6647 46.6635 82.6647 43.3949C82.6647 40.1263 85.1137 37.5458 88.3792 37.5458C89.6109 37.5458 91.086 37.9616 92.017 38.7931V38.8074Z" fill="white"/>
<path d="M98.0036 37.7465L103.016 46.2477V37.7465H104.592V49.1149H102.959L97.9463 40.7141V49.1149H96.3852V37.7465H98.0036Z" fill="white"/>
<path d="M168.998 3.01055C168.998 4.71653 167.652 6.06411 165.919 6.06411C164.186 6.06411 162.811 4.71653 162.811 3.01055C162.811 1.30457 164.186 0 165.919 0C167.652 0 168.998 1.34758 168.998 3.01055ZM163.584 3.01055C163.584 4.35813 164.572 5.41899 165.933 5.41899C167.294 5.41899 168.225 4.35813 168.225 3.02488C168.225 1.69164 167.251 0.60211 165.919 0.60211C164.587 0.60211 163.584 1.69164 163.584 3.01055ZM165.432 4.5875H164.73V1.57695C165.002 1.51961 165.389 1.49094 165.89 1.49094C166.463 1.49094 166.721 1.57695 166.936 1.70598C167.107 1.835 167.236 2.07871 167.236 2.36543C167.236 2.69516 166.979 2.95321 166.606 3.06789V3.1109C166.907 3.22559 167.064 3.44063 167.15 3.84203C167.236 4.30078 167.294 4.48715 167.365 4.60184H166.606C166.52 4.48715 166.463 4.21477 166.363 3.87071C166.305 3.54098 166.119 3.39762 165.732 3.39762H165.403V4.61618L165.432 4.5875ZM165.46 2.88153H165.79C166.176 2.88153 166.492 2.7525 166.492 2.43711C166.492 2.16473 166.291 1.97836 165.847 1.97836C165.661 1.97836 165.532 1.9927 165.46 2.02137V2.88153Z" fill="white"/>
</svg>
