<svg width="105" height="47" viewBox="0 0 105 47" fill="none" xmlns="http://www.w3.org/2000/svg">
<g id="Group">
<g id="Group_2">
<path id="Vector" d="M6.72928 15.221H4.98199V23.1344C4.98199 24.1809 4.75284 24.9407 4.29454 25.4425C3.83623 25.9299 3.2347 26.188 2.50428 26.188C1.71657 26.188 1.10072 25.9299 0.656738 25.4138C0.212755 24.8977 -0.0020752 24.1379 -0.0020752 23.1487V4.18228C-0.0020752 3.10708 0.241399 2.33294 0.714027 1.84552C1.20098 1.3581 1.97437 1.12872 3.04852 1.12872H11.1548C12.2719 1.12872 13.2315 1.17173 14.0192 1.27208C14.8069 1.37243 15.523 1.5588 16.1675 1.84552C16.9409 2.17525 17.6283 2.634 18.2156 3.23611C18.8028 3.83822 19.2611 4.54068 19.5618 5.34349C19.8626 6.14631 20.0201 6.99213 20.0201 7.89529C20.0201 9.73029 19.5045 11.1926 18.4733 12.2964C17.4422 13.4003 15.8667 14.1744 13.7614 14.6332C14.6494 15.1063 15.4944 15.7944 16.2964 16.7119C17.0984 17.6294 17.8145 18.6042 18.459 19.6364C19.0892 20.6686 19.5905 21.6005 19.9342 22.4463C20.2922 23.2778 20.4641 23.8512 20.4641 24.1666C20.4641 24.482 20.3639 24.8117 20.149 25.1271C19.9485 25.4425 19.6621 25.7005 19.304 25.8869C18.946 26.0733 18.5306 26.1593 18.058 26.1593C17.4995 26.1593 17.0268 26.0303 16.6545 25.7579C16.2678 25.4998 15.9527 25.1558 15.6662 24.7544C15.3941 24.353 15.0217 23.7509 14.5491 22.9767L12.5583 19.6508C11.8422 18.4322 11.1978 17.5004 10.6392 16.8696C10.0806 16.2245 9.50776 15.7944 8.92055 15.565C8.33335 15.3356 7.60292 15.2066 6.72928 15.2066V15.221ZM9.57937 4.87041H4.98199V11.637H9.45047C10.6535 11.637 11.6561 11.5366 12.4724 11.3216C13.2888 11.1209 13.9189 10.7625 14.3486 10.2607C14.7783 9.75896 14.9931 9.07084 14.9931 8.19635C14.9931 7.50822 14.8212 6.90611 14.4775 6.39002C14.1338 5.87392 13.6468 5.48685 13.031 5.2288C12.4438 4.98509 11.298 4.85607 9.59369 4.85607L9.57937 4.87041Z" fill="white"/>
<path id="Vector_2" d="M43.9236 22.9624L42.7492 19.8658H32.7524L31.578 23.0197C31.1197 24.2526 30.733 25.0841 30.4036 25.5142C30.0742 25.9443 29.5443 26.1593 28.8139 26.1593C28.1837 26.1593 27.6395 25.9299 27.1525 25.4712C26.6656 25.0124 26.4364 24.4963 26.4364 23.9086C26.4364 23.5788 26.4937 23.2204 26.6083 22.862C26.7228 22.5036 26.909 22.0019 27.1668 21.3711L33.4542 5.38652C33.6261 4.92777 33.8552 4.38301 34.0987 3.73789C34.3565 3.09277 34.6143 2.56234 34.9007 2.13226C35.1872 1.70219 35.5595 1.35812 36.0322 1.10008C36.4905 0.842029 37.0634 0.698669 37.7508 0.698669C38.4383 0.698669 39.0255 0.827693 39.4838 1.10008C39.9421 1.35812 40.3288 1.70219 40.6152 2.11793C40.9017 2.53367 41.1451 2.97809 41.3313 3.45117C41.5318 3.92426 41.7753 4.56938 42.0761 5.35785L48.5067 21.2421C49.0079 22.4463 49.2657 23.3351 49.2657 23.8799C49.2657 24.4247 49.0223 24.9694 48.5496 25.4569C48.077 25.9299 47.5041 26.1736 46.831 26.1736C46.4443 26.1736 46.1006 26.102 45.8284 25.9586C45.542 25.8153 45.3128 25.6289 45.1267 25.3852C44.9405 25.1415 44.7256 24.7687 44.5108 24.2813C44.296 23.7795 44.1098 23.3495 43.9523 22.9624H43.9236ZM34.0557 16.1241H41.4029L37.6935 5.95996L34.0557 16.1241Z" fill="white"/>
<path id="Vector_3" d="M56.5413 23.1344V3.72355C56.5413 2.72004 56.7704 1.96023 57.2288 1.45847C57.6871 0.956716 58.2743 0.698669 59.0047 0.698669C59.7351 0.698669 60.3653 0.942381 60.8236 1.44414C61.2819 1.9459 61.5254 2.7057 61.5254 3.72355V23.1201C61.5254 24.1379 61.2962 24.8977 60.8236 25.3995C60.3653 25.9013 59.7494 26.1593 59.0047 26.1593C58.2599 26.1593 57.7014 25.9013 57.2288 25.3995C56.7704 24.8834 56.527 24.1379 56.527 23.1201L56.5413 23.1344Z" fill="white"/>
<path id="Vector_4" d="M75.5467 3.72355V12.3538L85.3286 2.1466C85.8013 1.65918 86.2023 1.28644 86.5317 1.05707C86.8611 0.827693 87.3051 0.698669 87.8493 0.698669C88.5654 0.698669 89.1383 0.913709 89.5823 1.32945C90.0262 1.74519 90.2411 2.26129 90.2411 2.8634C90.2411 3.59453 89.8687 4.31133 89.1096 5.02813L83.0514 10.7768L90.0263 20.7833C90.5132 21.4715 90.8856 22.0879 91.129 22.604C91.3725 23.1201 91.5014 23.6362 91.5014 24.1236C91.5014 24.6684 91.2866 25.1415 90.8569 25.5572C90.4273 25.9586 89.8401 26.1593 89.1096 26.1593C88.4222 26.1593 87.8493 26.016 87.4196 25.7149C86.99 25.4138 86.6176 25.0268 86.3168 24.525C86.0161 24.0376 85.744 23.5788 85.5148 23.1774L79.6284 14.1028L75.5467 18.0165V23.1058C75.5467 24.1379 75.3175 24.8977 74.8449 25.3995C74.3723 25.9013 73.7707 26.145 73.026 26.145C72.5963 26.145 72.1953 26.0303 71.7943 25.8153C71.4076 25.5859 71.1068 25.2848 70.892 24.9121C70.7345 24.5967 70.6342 24.2383 70.6056 23.8226C70.5769 23.4068 70.5483 22.8047 70.5483 22.0306V3.72355C70.5483 2.72004 70.7631 1.96023 71.2071 1.45847C71.6511 0.956716 72.2526 0.698669 73.0117 0.698669C73.7707 0.698669 74.3723 0.942381 74.8306 1.44414C75.2889 1.9459 75.5324 2.7057 75.5324 3.72355H75.5467Z" fill="white"/>
<path id="Vector_5" d="M99.6076 23.1344V3.72355C99.6076 2.72004 99.8368 1.96023 100.295 1.45847C100.753 0.956716 101.341 0.698669 102.071 0.698669C102.801 0.698669 103.432 0.942381 103.89 1.44414C104.348 1.9459 104.592 2.7057 104.592 3.72355V23.1201C104.592 24.1379 104.363 24.8977 103.89 25.3995C103.432 25.9013 102.816 26.1593 102.071 26.1593C101.326 26.1593 100.768 25.9013 100.295 25.3995C99.8368 24.8834 99.5933 24.1379 99.5933 23.1201L99.6076 23.1344Z" fill="white"/>
</g>
<g id="Group_3">
<path id="Vector_6" d="M43.7517 34.7465C47.0028 34.7465 48.7931 37.3413 48.7931 40.3949C48.7931 43.4484 46.8596 46.1149 43.7517 46.1149H40.3001V34.7465H43.7517ZM41.8899 44.624H43.2505C43.5082 44.624 43.7517 44.624 44.0095 44.6097C46.0862 44.4376 47.1317 42.2729 47.1317 40.3949C47.1317 38.5169 46.1721 36.3808 44.0095 36.2518C43.7517 36.2375 43.5082 36.2375 43.2505 36.2375H41.8899V44.6383V44.624Z" fill="white"/>
<path id="Vector_7" d="M60.5658 34.7465V36.2375H54.8943V39.463H59.463V40.8393H54.8943V44.624H60.5658V46.1149H53.3045V34.7465H60.5658Z" fill="white"/>
<path id="Vector_8" d="M71.8516 35.5207L71.3073 36.7536C70.7344 36.2948 69.7462 35.9938 69.0015 35.9938C67.9273 35.9938 66.6097 36.4525 66.6097 37.7428C66.6097 39.7928 72.0664 39.205 72.0664 42.6887C72.0664 44.9107 70.3907 46.3157 68.2281 46.3157C67.025 46.3157 65.4783 45.9143 64.5187 45.1688L65.2061 43.7639C65.8793 44.2656 67.2828 44.8247 68.0992 44.8247C69.2449 44.8247 70.4194 44.2513 70.4194 42.9611C70.4194 40.4953 65.0056 41.0974 65.0056 37.6998C65.0056 35.5064 66.9105 34.5745 68.8439 34.5745C69.8465 34.5745 71.0925 34.8469 71.8516 35.535V35.5207Z" fill="white"/>
<path id="Vector_9" d="M78.1532 46.1149H76.5778V34.7465H78.1532V46.1149Z" fill="white"/>
<path id="Vector_10" d="M92.017 35.8074L91.3295 37.1406C90.685 36.5529 89.5106 36.0654 88.6226 36.0654C86.2309 36.0654 84.3547 38.0581 84.3547 40.4092C84.3547 42.9037 86.1306 44.796 88.637 44.796C89.2098 44.796 90.0692 44.495 90.4415 44.0506V40.4809H92.0026V44.839C91.4441 45.7852 89.4104 46.287 88.3648 46.287C85.0565 46.287 82.6647 43.6635 82.6647 40.3949C82.6647 37.1263 85.1137 34.5458 88.3792 34.5458C89.6109 34.5458 91.086 34.9616 92.017 35.7931V35.8074Z" fill="white"/>
<path id="Vector_11" d="M98.0036 34.7465L103.016 43.2477V34.7465H104.592V46.1149H102.959L97.9463 37.7141V46.1149H96.3852V34.7465H98.0036Z" fill="white"/>
</g>
</g>
</svg>
