<svg width="35" height="35" viewBox="0 0 35 35" fill="none" xmlns="http://www.w3.org/2000/svg">
<g id="Group 64">
<g id="Group 63">
<path id="Vector" d="M17.6094 0.000631988C8.11362 -0.0799751 0.00823385 7.55961 6.70631e-06 17.5286C-0.00822044 26.9234 7.55417 34.8871 17.4037 35.0022C26.911 35.0351 34.9753 27.4202 34.9999 17.5022C35.0246 8.0926 27.4655 0.0861742 17.6094 0.000631988ZM17.2688 32.2945C9.24238 32.181 2.68535 25.6288 2.70345 17.5138C2.65738 9.34119 9.35756 2.59322 17.7065 2.69686C25.7312 2.7972 32.438 9.39547 32.3031 17.7671C32.1731 25.7538 25.5996 32.4146 17.2688 32.2961V32.2945Z" fill="white"/>
</g>
<g id="Group 59">
<path id="Vector_2" fill-rule="evenodd" clip-rule="evenodd" d="M10.494 18.1709H14.654C15.8432 18.1709 16.8147 19.2236 16.8147 20.5121V25.0198C16.8147 26.3084 15.8432 27.361 14.654 27.361H10.494C9.30481 27.361 8.33333 26.3084 8.33333 25.0198V20.5121C8.33333 19.2236 9.30481 18.1709 10.494 18.1709ZM20.3338 7.49997H24.506C25.6951 7.49997 26.6666 8.55265 26.6666 9.84119V14.362C26.6666 15.6506 25.6951 16.7032 24.506 16.7032H20.3338C19.1447 16.7032 18.1732 15.6506 18.1732 14.362V9.84119C18.1732 8.55265 19.1447 7.49997 20.3338 7.49997ZM20.3338 9.50486C20.1605 9.50486 20.0234 9.65337 20.0234 9.84119V14.362C20.0234 14.5498 20.1605 14.6984 20.3338 14.6984H24.506C24.6793 14.6984 24.8164 14.5498 24.8164 14.362V9.84119C24.8164 9.65337 24.6793 9.50486 24.506 9.50486H20.3338ZM20.3338 18.1709H24.506C25.6951 18.1709 26.6666 19.2236 26.6666 20.5121V25.0198C26.6666 26.3084 25.6951 27.361 24.506 27.361H20.3338C19.1447 27.361 18.1732 26.3084 18.1732 25.0198V20.5121C18.1732 19.2236 19.1447 18.1709 20.3338 18.1709ZM20.3338 20.167C20.1605 20.167 20.0234 20.3286 20.0234 20.5121V25.0198C20.0234 25.2076 20.1605 25.3649 20.3338 25.3649H24.506C24.6793 25.3649 24.8164 25.2033 24.8164 25.0198V20.5121C24.8164 20.3243 24.6793 20.167 24.506 20.167H20.3338ZM10.494 7.49997H14.654C15.8432 7.49997 16.8147 8.55265 16.8147 9.84119V14.362C16.8147 15.6506 15.8432 16.7032 14.654 16.7032H10.494C9.30481 16.7032 8.33333 15.6506 8.33333 14.362V9.84119C8.33333 8.55265 9.30481 7.49997 10.494 7.49997ZM10.494 9.50486C10.3206 9.50486 10.1755 9.65337 10.1755 9.84119V14.362C10.1755 14.5498 10.3247 14.6984 10.494 14.6984H14.654C14.8274 14.6984 14.9725 14.5498 14.9725 14.362V9.84119C14.9725 9.65337 14.8233 9.50486 14.654 9.50486H10.494ZM10.494 20.167C10.3206 20.167 10.1755 20.3286 10.1755 20.5121V25.0198C10.1755 25.2076 10.3247 25.3649 10.494 25.3649H14.654C14.8274 25.3649 14.9725 25.2033 14.9725 25.0198V20.5121C14.9725 20.3243 14.8233 20.167 14.654 20.167H10.494Z" fill="white"/>
</g>
</g>
</svg>
