<svg width="88" height="99" viewBox="0 0 88 99" fill="none" xmlns="http://www.w3.org/2000/svg">
<path id="Union" fill-rule="evenodd" clip-rule="evenodd" d="M7.82962 32.7278H0L3.95576 30.437L1.15976 28.7836L5.75691 29.394L15.4048 23.8069L5.055 9.10193L28.9402 13.8486L22.0942 0L52.2872 12.7623L49.8747 2.56909L64.5063 14.6267L69.6395 21.967L74.3863 13.0706L77.9634 30.1881L88 32.7278L80.1459 37.8905L84.2712 48.0836L79.9942 46.2975C79.9942 46.2975 79.4119 63.371 75.3356 69.0279L75.3336 69.0209C74.4769 70.345 73.1745 71.3791 71.5872 71.8759C71.5799 71.8783 71.5713 71.8808 71.5628 71.8832C71.5542 71.8857 71.5456 71.8881 71.5382 71.8906C71.9004 71.411 72.2135 70.8629 72.4582 70.2366C74.7239 64.4231 72.5561 59.0011 69.5025 61.1248C66.449 63.2388 62.2601 71.2202 62.2601 71.2202L62.5048 58.7123H62.5097L54.5822 56.4956L54.6419 54.4453C52.8493 53.7944 51.4995 53.4977 51.3427 53.9999C51.2528 54.2868 51.1613 54.889 51.0401 55.6879C50.4683 59.4534 49.2332 67.5884 44.3646 67.6773C43.8743 67.6862 43.4004 67.6968 42.942 67.707C37.8866 67.8198 34.7114 67.8907 32.1944 65.2794C30.8951 63.9267 30.0468 61.2208 29.2281 58.6093C28.3201 55.713 27.4485 52.9328 26.0384 52.2431C23.3665 50.9317 15.5711 49.8747 15.2531 53.6769C14.9301 57.4841 14.9888 62.2895 16.9756 63.2144C18.9134 64.1197 20.7632 64.4916 22.2508 62.7397C23.2931 61.5114 24.9863 59.0891 25.3826 57.4302C24.3452 64.0463 21.3063 65.1767 19.6964 65.485C17.7732 65.7052 15.302 65.2011 14.5973 64.1735C13.6186 62.7446 11.9646 50.0068 13.9122 49.3168V49.3217C17.7341 47.9711 23.9733 49.2532 26.0726 49.8991C27.4978 50.3358 28.5077 49.8987 29.5995 49.4263C30.2697 49.1362 30.9707 48.8329 31.8176 48.71C35.8596 48.1277 48.7247 46.8603 49.8062 47.9417C51.0491 49.1896 50.8876 49.3706 50.8876 49.3706L54.7467 50.8462L54.9737 43.0531L41.678 40.8853L45.6173 36.4518L28.627 39.9017L22.8135 38.6196L21.5119 41.9325L7.48707 41.2474L14.4995 36.672L7.82962 32.7278ZM44.5456 48.8519C41.2817 48.7296 38.233 49.0379 35.1794 49.7425V49.7376C31.2549 50.6381 29.8945 51.01 30.6921 55.4288C31.3331 58.9962 33.408 63.5961 34.6314 64.9173C35.9233 66.3169 43.6599 66.8551 45.4901 63.5863C47.379 60.2098 48.387 53.5252 48.2843 51.2106C48.1822 48.957 47.2758 48.9314 45.2187 48.8734L45.2183 48.8734L45.2181 48.8733C45.0062 48.8674 44.7822 48.8611 44.5456 48.8519ZM54.0146 98.2617V75.6145H48.3234V93.2654H45.5243C44.1052 93.2654 43.4152 92.5705 43.0531 91.6995C42.691 90.7942 42.6029 89.7421 42.6029 89.0472V75.6145H36.9998V89.0472C36.9998 92.3014 37.362 93.8673 39.197 95.8835C41.037 97.8115 43.9242 98.2617 45.5831 98.2617H54.0146ZM27.2079 98.296H21.3064L14.2597 87.4519H16.3688C17.783 87.4519 19.1092 87.2709 19.804 86.85C20.4989 86.3998 21.1302 85.2547 21.1302 84.0167C21.1302 82.8716 20.4989 81.9076 19.804 81.4574C19.1092 81.0072 18.2088 80.8261 17.4258 80.8261H12.6693V75.7369H16.8875C20.4402 75.7369 22.6423 76.4317 23.8754 77.3958C25.8035 78.81 26.5865 81.0121 26.5865 83.4784C26.5865 85.2547 26.1656 86.5809 25.5343 87.633C24.7514 88.7781 23.6063 89.561 22.5542 90.0112L27.2226 98.296H27.2079ZM29.4345 98.296V75.7369H35.2186V98.296H29.4345ZM62.358 88.8368H61.2129V98.2617H55.4582V75.6733H61.2129V85.4309H62.358L68.5336 75.6733H74.5575L67.1488 86.9381L75.3405 98.2617H68.2938L62.358 88.8368Z" fill="white"/>
</svg>
