<svg width="49" height="18" viewBox="0 0 49 18" fill="none" xmlns="http://www.w3.org/2000/svg">
<g id="Group">
<path id="Vector" d="M11.144 18H6.62037L1.21905 9.68795H2.83569C3.91971 9.68795 4.93621 9.54916 5.46884 9.22658C6.00147 8.8815 6.48534 8.00379 6.48534 7.0548C6.48534 6.17709 6.00147 5.43816 5.46884 5.09308C4.93621 4.74799 4.24604 4.6092 3.64589 4.6092H0V0.708252H3.23329C5.95646 0.708252 7.64437 1.24088 8.5896 1.97981C10.0675 3.06383 10.6676 4.75174 10.6676 6.6422C10.6676 8.00378 10.345 9.02028 9.86116 9.82673C9.26101 10.7044 8.3833 11.3046 7.57685 11.6497L11.1552 18H11.144Z" fill="white"/>
<path id="Vector_2" d="M12.8507 18V0.708252H17.2843V18H12.8507Z" fill="white"/>
<path id="Vector_3" d="M31.6915 0.614502V17.9737H25.2287C23.9571 17.9737 21.7441 17.6287 20.3338 16.1508C18.9272 14.6054 18.6496 13.4051 18.6496 10.9108V0.614502H22.9444V10.9108C22.9444 11.4434 23.0119 12.2498 23.2895 12.9438C23.5671 13.6114 24.0959 14.1441 25.1837 14.1441H27.3292V0.614502H31.6915Z" fill="white"/>
<path id="Vector_4" d="M38.0868 10.7496H37.2091V17.9739H32.798V0.659668H37.2091V8.139H38.0868L42.8205 0.659668H47.4379L41.759 9.29428L48.038 17.9739H42.6367L38.0868 10.7496Z" fill="white"/>
</g>
</svg>
