<svg width="310" height="112" viewBox="0 0 310 112" fill="none" xmlns="http://www.w3.org/2000/svg">
<path d="M71.7912 112H42.6494L7.85329 58.4527H18.268C25.2514 58.4527 31.7998 57.5586 35.2311 55.4805C38.6624 53.2574 41.7795 47.6031 41.7795 41.4896C41.7795 35.8352 38.6624 31.0749 35.2311 28.8518C31.7998 26.6287 27.3536 25.7346 23.4874 25.7346H0V0.604126H20.8293C38.3724 0.604126 49.2462 4.03541 55.3355 8.79571C64.8561 15.7791 68.7224 26.6529 68.7224 38.8315C68.7224 47.603 66.6442 54.1515 63.5271 59.3467C59.6609 65.0011 54.0065 68.8674 48.8112 71.0904L71.8637 112H71.7912Z" fill="#002766"/>
<path d="M82.7859 112V0.604126H111.348V112H82.7859Z" fill="#002766"/>
<path d="M204.162 0V111.831H162.527C154.336 111.831 140.079 109.608 130.993 100.087C121.932 90.1316 120.144 82.3991 120.144 66.3301V0H147.811V66.3301C147.811 69.7614 148.246 74.9566 150.035 79.427C151.823 83.7282 155.23 87.1594 162.237 87.1594H176.059V0H204.162Z" fill="#002766"/>
<path d="M245.361 65.291H239.706V111.831H211.29V0.289917H239.706V48.4729H245.361L275.856 0.289917H305.602L269.017 55.9154L309.468 111.831H274.672L245.361 65.291Z" fill="#002766"/>
</svg>
