<svg width="35" height="35" viewBox="0 0 35 35" fill="none" xmlns="http://www.w3.org/2000/svg">
<g id="Group 61">
<path id="Vector" d="M17.6082 0.000631946C8.11308 -0.0799698 0.00823331 7.5591 6.70586e-06 17.5274C-0.0082199 26.9216 7.55367 34.8847 17.4026 34.9999C26.9092 35.0328 34.9729 27.4184 34.9976 17.5011C35.0223 8.09206 27.4637 0.0861685 17.6082 0.000631946ZM17.2676 32.2923C9.24177 32.1788 2.68517 25.6271 2.70327 17.5126C2.6572 9.34057 9.35695 2.59305 17.7053 2.69668C25.7295 2.79702 32.4359 9.39485 32.3009 17.7659C32.171 25.7521 25.5979 32.4124 17.2676 32.294V32.2923Z" fill="white"/>
<path id="Vector_2" d="M21.8581 18.5341C24.897 15.8414 24.925 11.6254 22.4323 8.88657C20.0236 6.23987 15.8395 6.00958 13.0951 8.37171C10.2586 10.8144 9.72715 15.6127 13.1428 18.5539C11.5995 19.3829 10.359 20.5278 9.44745 22.023C8.53265 23.5248 8.09006 25.1533 8.07196 26.9052H10.7505C10.8608 22.9623 13.8536 20.2662 17.3466 20.184C20.9746 20.0984 24.1632 22.8948 24.252 26.8986H26.9421C26.7825 23.1613 25.0862 20.3929 21.8581 18.5325V18.5341ZM17.4256 17.4912C15.1847 17.4665 13.4423 15.6423 13.4653 13.4118C13.4884 11.1796 15.2702 9.38992 17.5671 9.42282C19.9232 9.45736 21.5652 11.3754 21.5274 13.4809C21.5274 15.741 19.7291 17.5175 17.4256 17.4912Z" fill="white"/>
</g>
</svg>
