<svg width="36" height="36" viewBox="0 0 36 36" fill="none" xmlns="http://www.w3.org/2000/svg">
<g id="Group 67">
<path id="Vector" d="M25.6493 13.0008C25.6493 20.1789 19.907 25.9969 12.8246 25.9969C5.74375 25.9969 0 20.1805 0 13.0008C0 5.82265 5.74221 0 12.8246 0C19.9055 0 25.6493 5.82108 25.6493 13.0008Z" fill="white"/>
<path id="Vector_2" d="M18.853 7.2667C18.7992 7.11013 18.7351 7.06628 18.6359 7.02871C18.4189 6.9452 18.0509 7.07046 18.0509 7.07046C18.0509 7.07046 5.00924 11.8053 4.26506 12.3293C4.10382 12.4421 4.05008 12.5068 4.02527 12.584C3.89711 12.9577 4.29814 13.1227 4.29814 13.1227L7.65933 14.2291C7.65933 14.2291 7.78542 14.2479 7.82883 14.2187C8.59368 13.7302 15.5228 9.31263 15.9217 9.1644C15.9858 9.14562 16.0313 9.16649 16.0189 9.21033C15.8597 9.77818 9.84224 15.179 9.84224 15.179C9.84224 15.179 9.8195 15.2082 9.80503 15.2416L9.79676 15.2375L9.48255 18.6049C9.48255 18.6049 9.35026 19.6362 10.3735 18.6049C11.0949 17.8763 11.7916 17.2688 12.1409 16.9723C13.2965 17.7782 14.5409 18.6696 15.0763 19.1352C15.345 19.369 15.5724 19.4066 15.7564 19.4003C16.2649 19.3815 16.4075 18.8158 16.4075 18.8158C16.4075 18.8158 18.7847 9.15605 18.8633 7.86169C18.8716 7.73434 18.8819 7.65501 18.8819 7.56733C18.8819 7.44624 18.8716 7.32516 18.853 7.2667Z" fill="#003D96"/>
</g>
</svg>
