<svg width="102" height="62" viewBox="0 0 102 62" fill="none" xmlns="http://www.w3.org/2000/svg">
<g id="zaitex">
<path id="Vector" d="M11.2504 21.785C13.2643 20.2666 14.4524 17.8878 14.4524 15.3934H26.775L6.01278 32.7534C5.96932 32.775 5.94759 32.7967 5.91136 32.8329C1.68068 36.4191 4.2669 43.3458 9.83054 43.3458H18.8642C20.2841 43.3458 21.6388 42.8541 22.7254 41.9503L38.2283 29.0587C42.2344 25.7183 44.7192 20.9245 45.1466 15.7549V0H0V14.8583C0 20.6209 6.07798 24.3445 11.2504 21.785ZM99.9643 37.2578C99.3486 37.2578 98.7763 37.5471 98.4068 38.017L94.8716 42.3408L91.3364 38.017C90.9669 37.5471 90.3946 37.2578 89.7788 37.2578C88.0764 37.2578 87.1274 39.2462 88.2213 40.5549L92.2057 45.4498L88.1996 50.3664C87.1347 51.6751 88.0547 53.649 89.7571 53.649C90.3729 53.649 90.9452 53.3815 91.3364 52.9115L94.8716 48.5661L98.4068 52.9115C98.798 53.3815 99.3703 53.649 99.9861 53.649C101.667 53.649 102.616 51.6823 101.544 50.3664L97.5375 45.4498L101.522 40.5549C102.587 39.2245 101.667 37.2578 99.9643 37.2578ZM82.4258 37.9375C81.6652 37.4892 80.8466 37.2578 79.9193 37.2578H73.4719C72.4432 37.2578 71.5449 37.6266 70.7987 38.3207C70.0598 39.0365 69.6903 39.8969 69.6903 40.9236V48.8336C69.6903 49.7157 69.9149 50.511 70.3496 51.2485C70.7625 51.9643 71.3565 52.5572 72.0737 52.991C72.7909 53.4248 73.6168 53.649 74.4933 53.649H81.7232C82.8533 53.649 83.7733 52.7452 83.7733 51.6173C83.7733 50.4893 82.846 49.5711 81.7232 49.5711H74.5151C74.3122 49.5711 74.1239 49.506 74.0007 49.3686C73.8558 49.2023 73.7761 49.0433 73.7761 48.8119V41.3285H79.9555C80.1801 41.3285 80.3685 41.408 80.5278 41.5743C80.7162 41.7623 80.7959 41.9648 80.7959 42.2106V42.6444C80.7959 42.8903 80.7162 43.0783 80.5278 43.259C80.3612 43.4253 80.1801 43.5048 79.9555 43.5048H76.6666C75.5582 43.5048 74.631 44.4086 74.631 45.5366C74.631 46.6645 75.5582 47.5683 76.6666 47.5683H79.9121C80.8393 47.5683 81.658 47.3441 82.4186 46.8886C83.1575 46.4548 83.7516 45.8619 84.1862 45.1244C84.6354 44.3869 84.8672 43.5482 84.8672 42.6444V42.2106C84.8672 41.3068 84.6426 40.4681 84.1862 39.7089C83.7516 38.9714 83.1575 38.3785 82.4186 37.923L82.4258 37.9375ZM63.0256 31.5025H58.9398V37.2651H56.9041V41.343H58.9398V48.8264C58.9398 49.7085 59.1643 50.5472 59.6207 51.263C60.0554 52.0005 60.6494 52.5717 61.3884 53.0055C62.1273 53.4393 62.9676 53.6634 63.8514 53.6634H65.7639C66.894 53.6634 67.7996 52.7597 67.7996 51.6317C67.7996 50.5038 66.894 49.5855 65.7639 49.5855H63.9166C63.6486 49.5855 63.4675 49.506 63.2791 49.3397C63.1125 49.1951 63.0328 49.0288 63.0328 48.8047V41.343H67.7996V37.2651H63.0328V31.5025H63.0256ZM94.973 8.79207C95.6322 8.79207 96.2045 8.56793 96.6537 8.09796C97.1028 7.64968 97.3709 7.0351 97.3709 6.39883C97.3709 5.76257 97.1246 5.16968 96.6537 4.69971C96.219 4.25143 95.5888 4.0056 94.973 4.0056C94.292 4.0056 93.7197 4.22974 93.2489 4.69971C92.7997 5.14799 92.5534 5.76257 92.5534 6.39883C92.5534 7.0351 92.778 7.62799 93.2489 8.09796C93.698 8.54624 94.3355 8.81376 94.973 8.79207ZM92.9011 26.5425H97.0087V10.1441H92.9011V26.5425ZM79.673 21.785C79.347 21.4162 79.1587 20.9462 79.1587 20.4546V16.1887C79.1587 15.632 79.3615 15.1837 79.7527 14.7932C80.1439 14.4028 80.593 14.222 81.1291 14.222H86.1567V24.4891C86.1567 25.617 87.0839 26.5353 88.1923 26.5353C89.3007 26.5353 90.2425 25.6098 90.2425 24.4891V10.1441H81.1219C80.0135 10.1441 79.0065 10.4117 78.0793 10.9612C77.1737 11.4962 76.4348 12.2337 75.8842 13.1303C75.3482 14.0341 75.0656 15.0391 75.0656 16.1453V20.4907C75.0656 21.597 75.3554 22.6237 75.8842 23.5275C76.442 24.4313 77.1592 25.1687 78.0793 25.7183C79.0065 26.2533 80.0062 26.5353 81.1219 26.5353H83.2372C84.3673 26.5353 85.2874 25.6098 85.2874 24.4891C85.2874 23.3684 84.3601 22.4574 83.2372 22.4574H81.1219C80.5496 22.4574 80.057 22.2332 79.6658 21.7777L79.673 21.785ZM70.6828 22.4646H63.9673L72.7185 13.1592V10.1441H59.5555C58.4254 10.1441 57.5199 11.0479 57.5199 12.1759C57.5199 13.3038 58.4254 14.2076 59.5555 14.2076H66.2276L57.5199 23.4913V26.5425H70.6828C71.8129 26.5425 72.7185 25.617 72.7185 24.5108C72.7185 23.4045 71.8129 22.4646 70.6828 22.4646ZM33.3891 40.2946C31.3969 41.7479 30.2233 44.0688 30.2233 46.5271V46.6066H7.65724C3.42656 46.6066 0 50.0266 0 54.2491C0 58.4716 3.42656 61.8699 7.63551 61.8915L45.6247 61.9928V46.5199C45.6247 40.2295 38.4818 36.5999 33.3891 40.2873V40.2946Z" fill="white"/>
</g>
</svg>
